<?xml version="1.0" encoding="UTF-8"?>
<svg xmlns="http://www.w3.org/2000/svg" xmlns:xlink="http://www.w3.org/1999/xlink" width="32px" height="32px" viewBox="0 0 32 32" version="1.1">
<defs>
<filter id="alpha" filterUnits="objectBoundingBox" x="0%" y="0%" width="100%" height="100%">
  <feColorMatrix type="matrix" in="SourceGraphic" values="0 0 0 0 1 0 0 0 0 1 0 0 0 0 1 0 0 0 1 0"/>
</filter>
<mask id="mask0">
  <g filter="url(#alpha)">
<rect x="0" y="0" width="32" height="32" style="fill:rgb(0%,0%,0%);fill-opacity:0.6;stroke:none;"/>
  </g>
</mask>
<clipPath id="clip1">
  <rect x="0" y="0" width="32" height="32"/>
</clipPath>
<g id="surface5" clip-path="url(#clip1)">
<path style=" stroke:none;fill-rule:nonzero;fill:rgb(14.901961%,18.823529%,21.568627%);fill-opacity:1;" d="M 0.386719 26.3125 C 0.125 25.855469 -0.015625 25.238281 0 24.605469 C 0 24.15625 0.0585938 23.710938 0.179688 23.304688 C 0.28125 22.917969 0.457031 22.59375 0.675781 22.382812 C 0.886719 22.183594 1.128906 22.082031 1.371094 22.089844 C 1.566406 22.085938 1.761719 22.160156 1.9375 22.304688 C 2.089844 22.425781 2.222656 22.597656 2.332031 22.808594 L 2.34375 22.941406 L 2.164062 23.234375 C 2.113281 23.09375 2.050781 22.964844 1.976562 22.859375 C 1.820312 22.648438 1.625 22.535156 1.425781 22.539062 C 1.191406 22.527344 0.96875 22.71875 0.835938 23.042969 C 0.671875 23.503906 0.59375 24.035156 0.613281 24.570312 C 0.59375 25.082031 0.679688 25.589844 0.855469 26.003906 C 1 26.3125 1.21875 26.488281 1.453125 26.480469 C 1.589844 26.476562 1.722656 26.421875 1.847656 26.320312 C 1.980469 26.199219 2.089844 26.015625 2.164062 25.789062 L 2.371094 26.136719 C 2.132812 26.660156 1.761719 26.960938 1.371094 26.960938 C 1.003906 26.980469 0.648438 26.746094 0.382812 26.308594 "/>
<path style=" stroke:none;fill-rule:nonzero;fill:rgb(14.901961%,18.823529%,21.568627%);fill-opacity:1;" d="M 4.460938 25.242188 C 4.667969 25.78125 4.839844 26.355469 4.96875 26.960938 L 4.464844 26.960938 C 4.421875 26.648438 4.058594 24.78125 3.367188 24.78125 L 3.339844 24.777344 L 3.339844 26.960938 L 2.785156 26.960938 L 2.785156 22.089844 L 3.457031 22.089844 C 3.675781 22.078125 3.894531 22.113281 4.105469 22.199219 C 4.265625 22.265625 4.414062 22.410156 4.53125 22.613281 C 4.640625 22.816406 4.703125 23.085938 4.699219 23.363281 C 4.703125 23.691406 4.625 24.007812 4.480469 24.230469 C 4.371094 24.40625 4.238281 24.535156 4.09375 24.613281 C 4.234375 24.789062 4.359375 25 4.460938 25.242188 M 3.421875 22.566406 L 3.339844 22.5625 L 3.339844 24.34375 L 3.570312 24.34375 C 3.609375 24.339844 3.652344 24.328125 3.691406 24.3125 C 3.738281 24.292969 3.78125 24.269531 3.816406 24.25 C 3.875 24.210938 3.929688 24.148438 3.972656 24.070312 C 4.015625 24.003906 4.046875 23.921875 4.0625 23.828125 C 4.089844 23.699219 4.101562 23.5625 4.101562 23.429688 C 4.105469 23.191406 4.0625 22.957031 3.980469 22.765625 C 3.910156 22.636719 3.742188 22.566406 3.421875 22.566406 "/>
<path style=" stroke:none;fill-rule:nonzero;fill:rgb(14.901961%,18.823529%,21.568627%);fill-opacity:1;" d="M 5.535156 26.960938 L 5.535156 22.089844 L 6.089844 22.089844 L 6.089844 26.960938 Z M 5.535156 26.960938 "/>
<path style=" stroke:none;fill-rule:nonzero;fill:rgb(14.901961%,18.823529%,21.568627%);fill-opacity:1;" d="M 7.441406 26.953125 C 7.101562 26.851562 6.800781 26.507812 6.621094 26.003906 L 6.808594 25.660156 C 7.0625 26.277344 7.195312 26.445312 7.4375 26.507812 C 7.570312 26.550781 7.707031 26.496094 7.8125 26.355469 C 7.902344 26.246094 7.957031 26.074219 7.96875 25.890625 C 7.984375 25.722656 7.957031 25.550781 7.890625 25.417969 C 7.769531 25.203125 7.625 25.027344 7.464844 24.894531 C 7.304688 24.75 7.152344 24.585938 7.007812 24.40625 C 6.902344 24.261719 6.820312 24.078125 6.765625 23.867188 C 6.710938 23.65625 6.691406 23.429688 6.707031 23.203125 C 6.722656 22.867188 6.824219 22.558594 6.980469 22.355469 C 7.144531 22.152344 7.347656 22.0625 7.546875 22.109375 C 7.664062 22.128906 7.777344 22.183594 7.878906 22.269531 C 8.023438 22.410156 8.144531 22.609375 8.230469 22.847656 L 8.011719 23.152344 C 7.980469 23.050781 7.941406 22.957031 7.894531 22.867188 C 7.808594 22.683594 7.683594 22.570312 7.542969 22.546875 C 7.441406 22.511719 7.339844 22.554688 7.257812 22.664062 C 7.195312 22.75 7.15625 22.875 7.148438 23.011719 C 7.136719 23.167969 7.167969 23.324219 7.230469 23.4375 C 7.355469 23.652344 7.503906 23.835938 7.660156 23.972656 C 7.875 24.191406 8.03125 24.355469 8.128906 24.476562 C 8.234375 24.613281 8.320312 24.792969 8.371094 25 C 8.425781 25.226562 8.449219 25.472656 8.429688 25.71875 C 8.410156 26.101562 8.296875 26.453125 8.117188 26.683594 C 7.921875 26.921875 7.679688 27.015625 7.441406 26.953125 "/>
<path style=" stroke:none;fill-rule:nonzero;fill:rgb(14.901961%,18.823529%,21.568627%);fill-opacity:1;" d="M 10.464844 22.53125 L 10.101562 22.53125 L 10.101562 26.960938 L 9.542969 26.960938 L 9.542969 22.53125 L 8.417969 22.53125 L 8.425781 22.089844 L 11.234375 22.089844 L 11.238281 22.53125 Z M 10.464844 22.53125 "/>
<path style=" stroke:none;fill-rule:nonzero;fill:rgb(14.901961%,18.823529%,21.568627%);fill-opacity:1;" d="M 12.671875 26.960938 C 12.507812 26.273438 12.445312 26.03125 12.445312 26.03125 L 12.257812 25.273438 L 11.378906 25.273438 L 10.996094 26.960938 L 10.671875 26.960938 L 11.863281 22.089844 L 12.050781 22.089844 L 13.28125 26.960938 Z M 11.808594 23.433594 L 11.472656 24.839844 L 12.15625 24.839844 Z M 11.808594 23.433594 "/>
<path style=" stroke:none;fill-rule:nonzero;fill:rgb(14.901961%,18.823529%,21.568627%);fill-opacity:1;" d="M 13.707031 26.960938 L 13.707031 22.089844 L 14.265625 22.089844 L 14.265625 26.515625 L 15.765625 26.515625 L 15.765625 26.960938 Z M 13.707031 26.960938 "/>
<path style=" stroke:none;fill-rule:nonzero;fill:rgb(14.901961%,18.823529%,21.568627%);fill-opacity:1;" d="M 18.792969 25.242188 C 18.996094 25.78125 19.167969 26.355469 19.296875 26.960938 L 18.796875 26.960938 C 18.75 26.648438 18.386719 24.78125 17.699219 24.78125 L 17.667969 24.777344 L 17.667969 26.960938 L 17.113281 26.960938 L 17.113281 22.089844 L 17.789062 22.089844 C 18.003906 22.078125 18.222656 22.113281 18.433594 22.199219 C 18.597656 22.265625 18.742188 22.410156 18.859375 22.613281 C 18.972656 22.816406 19.03125 23.085938 19.03125 23.363281 C 19.035156 23.691406 18.953125 24.007812 18.8125 24.230469 C 18.699219 24.40625 18.566406 24.535156 18.421875 24.613281 C 18.566406 24.789062 18.6875 25 18.792969 25.242188 M 17.75 22.566406 L 17.667969 22.5625 L 17.667969 24.34375 L 17.898438 24.34375 C 17.941406 24.339844 17.980469 24.328125 18.023438 24.3125 C 18.066406 24.292969 18.109375 24.269531 18.148438 24.25 C 18.207031 24.210938 18.257812 24.148438 18.300781 24.070312 C 18.34375 24.003906 18.375 23.921875 18.390625 23.828125 C 18.417969 23.699219 18.433594 23.5625 18.429688 23.429688 C 18.4375 23.191406 18.394531 22.957031 18.308594 22.765625 C 18.242188 22.636719 18.074219 22.566406 17.75 22.566406 "/>
<path style=" stroke:none;fill-rule:nonzero;fill:rgb(14.901961%,18.823529%,21.568627%);fill-opacity:1;" d="M 20.65625 22.53125 L 20.378906 22.53125 L 20.378906 24.183594 L 21.160156 24.183594 L 21.160156 24.625 L 20.378906 24.625 L 20.378906 26.515625 L 21.566406 26.515625 L 21.566406 26.953125 L 19.816406 26.953125 L 19.816406 22.085938 L 21.574219 22.085938 L 21.574219 22.53125 Z M 20.65625 22.53125 "/>
<path style=" stroke:none;fill-rule:nonzero;fill:rgb(14.901961%,18.823529%,21.568627%);fill-opacity:1;" d="M 23.875 26.960938 C 23.714844 26.273438 23.652344 26.03125 23.652344 26.03125 L 23.464844 25.273438 L 22.585938 25.273438 L 22.203125 26.960938 L 21.878906 26.960938 L 23.070312 22.089844 L 23.257812 22.089844 L 24.488281 26.960938 Z M 23.015625 23.433594 L 22.679688 24.839844 L 23.363281 24.839844 Z M 23.015625 23.433594 "/>
<path style=" stroke:none;fill-rule:nonzero;fill:rgb(14.901961%,18.823529%,21.568627%);fill-opacity:1;" d="M 24.914062 26.960938 L 24.914062 22.089844 L 25.472656 22.089844 L 25.472656 26.515625 L 26.96875 26.515625 L 26.96875 26.960938 Z M 24.914062 26.960938 "/>
<path style=" stroke:none;fill-rule:nonzero;fill:rgb(14.901961%,18.823529%,21.568627%);fill-opacity:1;" d="M 28.277344 22.53125 L 27.917969 22.53125 L 27.917969 26.960938 L 27.359375 26.960938 L 27.359375 22.53125 L 26.234375 22.53125 L 26.242188 22.089844 L 29.046875 22.089844 L 29.050781 22.53125 Z M 28.277344 22.53125 "/>
<path style=" stroke:none;fill-rule:nonzero;fill:rgb(14.901961%,18.823529%,21.568627%);fill-opacity:1;" d="M 30.953125 25.039062 L 30.953125 26.960938 L 30.394531 26.960938 L 30.394531 25.082031 L 29.289062 22.089844 L 29.984375 22.089844 L 30.816406 24.523438 L 31.644531 22.089844 L 32.011719 22.089844 Z M 30.953125 25.039062 "/>
<path style=" stroke:none;fill-rule:nonzero;fill:rgb(14.901961%,18.823529%,21.568627%);fill-opacity:1;" d="M 10.28125 31.464844 C 10.195312 31.726562 10.027344 31.878906 9.851562 31.851562 C 9.675781 31.847656 9.511719 31.726562 9.394531 31.507812 L 9.515625 31.304688 C 9.523438 31.320312 9.53125 31.339844 9.542969 31.355469 C 9.621094 31.507812 9.730469 31.59375 9.851562 31.597656 C 9.957031 31.621094 10.0625 31.527344 10.113281 31.367188 C 10.128906 31.296875 10.128906 31.222656 10.117188 31.152344 C 10.082031 30.992188 9.984375 30.925781 9.851562 30.855469 C 9.699219 30.78125 9.523438 30.691406 9.464844 30.417969 C 9.4375 30.273438 9.441406 30.113281 9.484375 29.980469 C 9.566406 29.777344 9.707031 29.660156 9.851562 29.667969 C 10.027344 29.667969 10.191406 29.792969 10.308594 30.011719 L 10.1875 30.214844 C 10.179688 30.195312 10.171875 30.179688 10.160156 30.164062 C 10.082031 30.011719 9.96875 29.925781 9.851562 29.921875 C 9.769531 29.921875 9.695312 29.988281 9.648438 30.101562 C 9.628906 30.171875 9.625 30.253906 9.636719 30.332031 C 9.671875 30.484375 9.765625 30.550781 9.894531 30.617188 C 10.050781 30.695312 10.226562 30.785156 10.289062 31.0625 C 10.316406 31.195312 10.3125 31.339844 10.28125 31.46875 "/>
<path style=" stroke:none;fill-rule:nonzero;fill:rgb(14.901961%,18.823529%,21.568627%);fill-opacity:1;" d="M 11.886719 30.757812 C 11.875 31.335938 11.589844 31.789062 11.25 31.777344 C 10.90625 31.765625 10.632812 31.289062 10.636719 30.710938 C 10.640625 30.132812 10.917969 29.667969 11.261719 29.667969 C 11.613281 29.679688 11.890625 30.167969 11.886719 30.757812 M 10.953125 30.164062 C 10.773438 30.503906 10.773438 31.015625 10.953125 31.355469 C 11.03125 31.507812 11.144531 31.597656 11.261719 31.597656 C 11.382812 31.597656 11.496094 31.507812 11.570312 31.355469 C 11.75 31.015625 11.75 30.503906 11.570312 30.164062 C 11.496094 30.011719 11.382812 29.921875 11.261719 29.921875 C 11.144531 29.921875 11.03125 30.011719 10.953125 30.164062 "/>
<path style=" stroke:none;fill-rule:nonzero;fill:rgb(14.901961%,18.823529%,21.568627%);fill-opacity:1;" d="M 13.21875 29.71875 L 13.21875 30.980469 C 13.21875 31.441406 12.996094 31.816406 12.722656 31.816406 C 12.453125 31.816406 12.230469 31.441406 12.230469 30.980469 L 12.230469 29.71875 L 12.414062 29.71875 L 12.414062 30.980469 C 12.414062 31.105469 12.429688 31.59375 12.726562 31.59375 C 13.023438 31.59375 13.035156 31.105469 13.035156 30.980469 L 13.035156 29.71875 Z M 13.21875 29.71875 "/>
<path style=" stroke:none;fill-rule:nonzero;fill:rgb(14.901961%,18.823529%,21.568627%);fill-opacity:1;" d="M 14.425781 29.976562 L 14.042969 29.976562 L 14.042969 31.796875 L 13.863281 31.796875 L 13.863281 29.976562 L 13.480469 29.976562 L 13.480469 29.71875 L 14.425781 29.71875 Z M 14.425781 29.976562 "/>
<path style=" stroke:none;fill-rule:nonzero;fill:rgb(14.901961%,18.823529%,21.568627%);fill-opacity:1;" d="M 15.644531 29.71875 L 15.644531 31.796875 L 15.464844 31.796875 L 15.464844 30.886719 L 14.886719 30.886719 L 14.886719 31.796875 L 14.703125 31.796875 L 14.703125 29.71875 L 14.886719 29.71875 L 14.886719 30.628906 L 15.464844 30.628906 L 15.464844 29.71875 Z M 15.644531 29.71875 "/>
<path style=" stroke:none;fill-rule:nonzero;fill:rgb(14.901961%,18.823529%,21.568627%);fill-opacity:1;" d="M 17.734375 31.796875 L 17.539062 31.796875 L 17.414062 31.253906 L 16.929688 31.253906 L 16.808594 31.796875 L 16.613281 31.796875 L 17.117188 29.71875 L 17.230469 29.71875 Z M 17.359375 31 L 17.175781 30.179688 L 16.988281 31 Z M 17.359375 31 "/>
<path style=" stroke:none;fill-rule:nonzero;fill:rgb(14.901961%,18.823529%,21.568627%);fill-opacity:1;" d="M 18.246094 29.976562 L 18.246094 30.621094 L 18.765625 30.621094 L 18.765625 30.875 L 18.246094 30.875 L 18.246094 31.796875 L 18.0625 31.796875 L 18.0625 29.71875 L 18.878906 29.71875 L 18.878906 29.976562 Z M 18.246094 29.976562 "/>
<path style=" stroke:none;fill-rule:nonzero;fill:rgb(14.901961%,18.823529%,21.568627%);fill-opacity:1;" d="M 19.90625 31.136719 L 20.167969 31.796875 L 19.96875 31.796875 L 19.726562 31.191406 L 19.4375 31.191406 L 19.4375 31.796875 L 19.257812 31.796875 L 19.257812 29.71875 L 19.734375 29.71875 C 19.941406 29.722656 20.117188 29.96875 20.160156 30.3125 C 20.199219 30.652344 20.09375 31 19.90625 31.136719 M 19.4375 30.9375 L 19.734375 30.9375 C 19.878906 30.910156 19.988281 30.703125 19.988281 30.457031 C 19.988281 30.210938 19.878906 30.003906 19.734375 29.972656 L 19.4375 29.972656 Z M 19.4375 30.9375 "/>
<path style=" stroke:none;fill-rule:nonzero;fill:rgb(14.901961%,18.823529%,21.568627%);fill-opacity:1;" d="M 20.578125 29.71875 L 20.761719 29.71875 L 20.761719 31.796875 L 20.578125 31.796875 Z M 20.578125 29.71875 "/>
<path style=" stroke:none;fill-rule:nonzero;fill:rgb(14.901961%,18.823529%,21.568627%);fill-opacity:1;" d="M 22.265625 31.507812 C 22.148438 31.726562 21.984375 31.851562 21.8125 31.851562 C 21.460938 31.832031 21.183594 31.351562 21.183594 30.757812 C 21.183594 30.167969 21.460938 29.6875 21.8125 29.667969 C 21.984375 29.667969 22.152344 29.792969 22.269531 30.011719 L 22.148438 30.214844 C 22.140625 30.195312 22.132812 30.179688 22.121094 30.164062 C 22.042969 30.011719 21.929688 29.925781 21.8125 29.921875 C 21.691406 29.921875 21.582031 30.011719 21.503906 30.164062 C 21.324219 30.503906 21.324219 31.015625 21.503906 31.355469 C 21.582031 31.507812 21.691406 31.59375 21.8125 31.597656 C 21.929688 31.59375 22.042969 31.507812 22.121094 31.355469 C 22.128906 31.339844 22.136719 31.324219 22.148438 31.304688 Z M 22.265625 31.507812 "/>
<path style=" stroke:none;fill-rule:nonzero;fill:rgb(14.901961%,18.823529%,21.568627%);fill-opacity:1;" d="M 23.652344 31.796875 L 23.453125 31.796875 L 23.332031 31.253906 L 22.847656 31.253906 L 22.726562 31.796875 L 22.527344 31.796875 L 23.035156 29.71875 L 23.144531 29.71875 Z M 23.273438 31 L 23.089844 30.179688 L 22.90625 31 Z M 23.273438 31 "/>
<path style=" stroke:none;fill-rule:nonzero;fill:rgb(14.901961%,18.823529%,21.568627%);fill-opacity:1;" d="M 15.996094 17.035156 C 13.210938 17.035156 10.953125 13.222656 10.953125 8.523438 C 10.953125 3.824219 13.210938 0.0117188 15.996094 0.0117188 C 18.78125 0.0117188 21.039062 3.824219 21.039062 8.523438 C 21.035156 13.21875 18.78125 17.027344 15.996094 17.035156 M 15.996094 0.25 C 13.289062 0.25 11.09375 3.953125 11.09375 8.523438 C 11.09375 13.09375 13.289062 16.796875 15.996094 16.796875 C 18.703125 16.796875 20.898438 13.09375 20.898438 8.523438 C 20.894531 3.957031 18.703125 0.253906 15.996094 0.25 "/>
<path style=" stroke:none;fill-rule:nonzero;fill:rgb(14.901961%,18.823529%,21.568627%);fill-opacity:1;" d="M 16.007812 17.039062 C 15.992188 17.039062 15.976562 17.03125 15.964844 17.015625 L 14.4375 14.949219 L 12.480469 14.574219 C 12.445312 14.566406 12.421875 14.523438 12.417969 14.46875 L 12.179688 11.164062 L 10.976562 8.585938 C 10.957031 8.542969 10.957031 8.484375 10.976562 8.441406 L 12.179688 5.871094 L 12.421875 2.558594 C 12.425781 2.503906 12.453125 2.464844 12.484375 2.457031 L 14.421875 2.085938 L 15.972656 0.0234375 C 15.996094 -0.0078125 16.03125 -0.0078125 16.058594 0.0234375 L 17.574219 2.074219 L 19.542969 2.464844 C 19.574219 2.472656 19.601562 2.515625 19.605469 2.570312 L 19.8125 5.882812 L 21.042969 8.453125 C 21.066406 8.496094 21.066406 8.558594 21.042969 8.601562 L 19.8125 11.152344 L 19.597656 14.480469 C 19.59375 14.535156 19.570312 14.578125 19.535156 14.582031 L 17.589844 14.949219 L 16.050781 17.015625 C 16.039062 17.03125 16.023438 17.039062 16.007812 17.039062 M 12.550781 14.347656 L 14.472656 14.71875 C 14.484375 14.722656 14.496094 14.730469 14.507812 14.742188 L 16.007812 16.769531 L 17.515625 14.742188 C 17.527344 14.730469 17.539062 14.722656 17.554688 14.71875 L 19.464844 14.359375 L 19.671875 11.089844 C 19.675781 11.070312 19.679688 11.046875 19.6875 11.03125 L 20.898438 8.527344 L 19.6875 6.003906 C 19.679688 5.988281 19.675781 5.964844 19.671875 5.941406 L 19.46875 2.691406 L 17.535156 2.308594 C 17.523438 2.304688 17.511719 2.296875 17.5 2.28125 L 16.015625 0.269531 L 14.492188 2.292969 C 14.484375 2.304688 14.472656 2.3125 14.457031 2.316406 L 12.554688 2.683594 L 12.316406 5.933594 C 12.316406 5.953125 12.308594 5.976562 12.300781 5.992188 L 11.121094 8.511719 L 12.300781 11.042969 C 12.308594 11.058594 12.316406 11.082031 12.316406 11.101562 Z M 12.550781 14.347656 "/>
<path style=" stroke:none;fill-rule:nonzero;fill:rgb(14.901961%,18.823529%,21.568627%);fill-opacity:1;" d="M 14.464844 14.957031 C 14.453125 14.957031 14.445312 14.953125 14.4375 14.945312 C 14.417969 14.933594 14.398438 14.902344 14.394531 14.863281 L 14.019531 11.875 L 12.234375 11.230469 C 12.210938 11.222656 12.191406 11.199219 12.183594 11.160156 C 12.175781 11.125 12.175781 11.082031 12.191406 11.050781 L 13.191406 8.53125 L 12.191406 5.984375 C 12.175781 5.953125 12.175781 5.910156 12.183594 5.875 C 12.191406 5.835938 12.210938 5.8125 12.234375 5.804688 L 14.011719 5.1875 L 14.382812 2.175781 C 14.386719 2.136719 14.402344 2.105469 14.425781 2.089844 C 14.445312 2.074219 14.46875 2.078125 14.488281 2.101562 L 15.992188 3.792969 L 17.5 2.101562 C 17.519531 2.078125 17.542969 2.074219 17.566406 2.089844 C 17.585938 2.105469 17.601562 2.136719 17.609375 2.175781 L 17.972656 5.175781 L 19.757812 5.816406 C 19.78125 5.824219 19.800781 5.851562 19.808594 5.886719 C 19.816406 5.925781 19.816406 5.964844 19.800781 6 L 18.800781 8.515625 L 19.800781 11.039062 C 19.816406 11.070312 19.816406 11.113281 19.808594 11.148438 C 19.800781 11.1875 19.78125 11.210938 19.757812 11.21875 L 17.980469 11.863281 L 17.628906 14.863281 C 17.625 14.902344 17.609375 14.933594 17.589844 14.949219 C 17.566406 14.964844 17.542969 14.960938 17.523438 14.9375 L 16.003906 13.253906 L 14.503906 14.9375 C 14.492188 14.953125 14.476562 14.957031 14.464844 14.957031 M 12.363281 11.039062 L 14.089844 11.660156 C 14.117188 11.671875 14.140625 11.707031 14.144531 11.753906 L 14.511719 14.644531 L 15.960938 13.015625 C 15.984375 12.988281 16.015625 12.988281 16.039062 13.015625 L 17.511719 14.644531 L 17.851562 11.738281 C 17.859375 11.695312 17.878906 11.65625 17.90625 11.648438 L 19.628906 11.027344 L 18.65625 8.582031 C 18.640625 8.539062 18.640625 8.488281 18.65625 8.449219 L 19.628906 6.007812 L 17.898438 5.386719 C 17.871094 5.378906 17.851562 5.34375 17.84375 5.296875 L 17.492188 2.394531 L 16.03125 4.035156 C 16.003906 4.058594 15.976562 4.058594 15.953125 4.035156 L 14.5 2.394531 L 14.136719 5.308594 C 14.132812 5.355469 14.109375 5.390625 14.082031 5.402344 L 12.363281 6 L 13.335938 8.464844 C 13.351562 8.503906 13.351562 8.558594 13.335938 8.597656 Z M 12.363281 11.039062 "/>
<path style=" stroke:none;fill-rule:nonzero;fill:rgb(14.901961%,18.823529%,21.568627%);fill-opacity:1;" d="M 16 13.230469 C 15.992188 13.230469 15.984375 13.226562 15.976562 13.21875 L 14.050781 11.882812 C 14.035156 11.871094 14.019531 11.847656 14.011719 11.820312 L 13.210938 8.578125 C 13.207031 8.550781 13.207031 8.515625 13.210938 8.488281 L 14.003906 5.238281 C 14.011719 5.210938 14.027344 5.1875 14.042969 5.175781 L 15.964844 3.824219 C 15.980469 3.8125 16 3.8125 16.015625 3.824219 L 17.941406 5.164062 C 17.957031 5.175781 17.972656 5.199219 17.980469 5.226562 L 18.78125 8.46875 C 18.789062 8.496094 18.789062 8.53125 18.78125 8.558594 L 17.988281 11.808594 C 17.980469 11.835938 17.964844 11.859375 17.949219 11.871094 L 16.027344 13.21875 C 16.019531 13.226562 16.011719 13.230469 16 13.230469 M 14.132812 11.683594 L 16 12.984375 L 17.867188 11.671875 L 18.640625 8.515625 L 17.859375 5.363281 L 15.992188 4.0625 L 14.125 5.375 L 13.351562 8.535156 Z M 14.132812 11.683594 "/>
<path style=" stroke:none;fill-rule:nonzero;fill:rgb(14.901961%,18.823529%,21.568627%);fill-opacity:1;" d="M 16.011719 16.484375 C 15.972656 16.484375 15.945312 16.4375 15.941406 16.378906 L 15.597656 10.207031 L 12.769531 14.160156 C 12.738281 14.199219 12.699219 14.195312 12.675781 14.152344 C 12.648438 14.109375 12.648438 14.042969 12.667969 13.996094 L 15.011719 9.21875 L 11.355469 8.640625 C 11.320312 8.632812 11.292969 8.582031 11.292969 8.523438 C 11.292969 8.460938 11.320312 8.410156 11.355469 8.402344 L 15.011719 7.824219 L 12.667969 3.050781 C 12.644531 3.003906 12.648438 2.9375 12.671875 2.890625 C 12.699219 2.847656 12.742188 2.847656 12.769531 2.886719 L 15.597656 6.839844 L 15.941406 0.667969 C 15.945312 0.605469 15.976562 0.5625 16.011719 0.5625 C 16.046875 0.5625 16.078125 0.605469 16.082031 0.667969 L 16.425781 6.839844 L 19.253906 2.886719 C 19.28125 2.847656 19.320312 2.851562 19.347656 2.894531 C 19.371094 2.9375 19.375 3.003906 19.351562 3.050781 L 17.007812 7.824219 L 20.667969 8.40625 C 20.703125 8.410156 20.730469 8.460938 20.730469 8.523438 C 20.730469 8.585938 20.703125 8.636719 20.667969 8.640625 L 17.007812 9.21875 L 19.351562 13.992188 C 19.375 14.039062 19.371094 14.109375 19.347656 14.152344 C 19.320312 14.195312 19.28125 14.199219 19.253906 14.160156 L 16.425781 10.203125 L 16.082031 16.378906 C 16.078125 16.4375 16.046875 16.484375 16.011719 16.484375 M 15.65625 9.851562 C 15.664062 9.851562 15.671875 9.855469 15.683594 9.859375 C 15.707031 9.878906 15.722656 9.914062 15.726562 9.957031 L 16.011719 15.097656 L 16.296875 9.957031 C 16.296875 9.914062 16.316406 9.878906 16.339844 9.859375 C 16.363281 9.84375 16.390625 9.851562 16.410156 9.878906 L 18.765625 13.171875 L 16.816406 9.199219 C 16.800781 9.164062 16.796875 9.117188 16.804688 9.078125 C 16.816406 9.039062 16.835938 9.007812 16.863281 9.003906 L 19.910156 8.523438 L 16.863281 8.039062 C 16.835938 8.035156 16.816406 8.007812 16.804688 7.96875 C 16.796875 7.925781 16.800781 7.878906 16.816406 7.847656 L 18.769531 3.871094 L 16.410156 7.164062 C 16.390625 7.191406 16.363281 7.199219 16.339844 7.183594 C 16.316406 7.164062 16.300781 7.128906 16.296875 7.082031 L 16.011719 1.945312 L 15.726562 7.082031 C 15.722656 7.128906 15.707031 7.167969 15.683594 7.183594 C 15.660156 7.199219 15.632812 7.191406 15.609375 7.164062 L 13.253906 3.871094 L 15.207031 7.847656 C 15.222656 7.882812 15.226562 7.929688 15.21875 7.96875 C 15.207031 8.011719 15.183594 8.039062 15.15625 8.042969 L 12.113281 8.523438 L 15.15625 9.007812 C 15.183594 9.011719 15.207031 9.039062 15.214844 9.078125 C 15.226562 9.121094 15.222656 9.164062 15.207031 9.199219 L 13.253906 13.175781 L 15.609375 9.882812 C 15.621094 9.863281 15.636719 9.855469 15.65625 9.855469 "/>
</g>
</defs>
<g id="surface1">
<use xlink:href="#surface5" mask="url(#mask0)"/>
</g>
</svg>
