<svg xmlns="http://www.w3.org/2000/svg" width="162.066" height="95.552" viewBox="0 0 162.066 95.552">
  <g id="Group_1" data-name="Group 1" transform="translate(-349.159 -157.523)" opacity="0.6">
    <path id="Path_1" data-name="Path 1" d="M351.108,229.395a7,7,0,0,1-1.949-5.117,8.83,8.83,0,0,1,.9-3.9,6.147,6.147,0,0,1,2.521-2.768,7.1,7.1,0,0,1,3.514-.88,6.323,6.323,0,0,1,2.883.649,6.176,6.176,0,0,1,1.987,1.509l.057.4-.9.877a4.651,4.651,0,0,0-.956-1.125,4.363,4.363,0,0,0-2.787-.957,3.483,3.483,0,0,0-2.979,1.51,7.9,7.9,0,0,0-1.127,4.583,6.528,6.528,0,0,0,1.222,4.3,3.754,3.754,0,0,0,3.017,1.43,4.771,4.771,0,0,0,2-.478,4,4,0,0,0,1.6-1.6l1.05,1.05a6.389,6.389,0,0,1-5.06,2.465,6.855,6.855,0,0,1-5-1.95" transform="translate(0 7.06)" fill="#263037"/>
    <path id="Path_2" data-name="Path 2" d="M370.249,226.187a25.761,25.761,0,0,1,2.559,5.157h-2.54c-.229-.937-2.063-6.532-5.557-6.532l-.153-.019v6.551h-2.807V216.735h3.418a12.3,12.3,0,0,1,3.266.325,4.445,4.445,0,0,1,2.158,1.241,3.254,3.254,0,0,1,.86,2.253,3.451,3.451,0,0,1-1.108,2.6,5.2,5.2,0,0,1-1.968,1.146,8.4,8.4,0,0,1,1.872,1.889m-5.27-8.022-.421-.019v5.35h1.165a3.641,3.641,0,0,0,.631-.1c.228-.057.438-.132.629-.19a2.112,2.112,0,0,0,.782-.536,1.644,1.644,0,0,0,.458-.725,3.319,3.319,0,0,0,.193-1.2,3.083,3.083,0,0,0-.612-1.987c-.342-.381-1.2-.592-2.825-.592" transform="translate(1.501 7.06)" fill="#263037"/>
    <path id="Path_3" data-name="Path 3" d="M374.188,231.345v-14.61h2.826v14.61Z" transform="translate(2.984 7.06)" fill="#263037"/>
    <path id="Path_4" data-name="Path 4" d="M383.264,231.323a6.093,6.093,0,0,1-4.162-2.846l.955-1.032c1.279,1.851,1.968,2.348,3.189,2.541a2.343,2.343,0,0,0,1.892-.458,2.016,2.016,0,0,0,.8-1.4,1.833,1.833,0,0,0-.4-1.412,7.924,7.924,0,0,0-2.158-1.568,19.236,19.236,0,0,1-2.311-1.468,4.077,4.077,0,0,1-1.222-1.624,3.768,3.768,0,0,1-.306-1.986,3.557,3.557,0,0,1,1.395-2.54,3.913,3.913,0,0,1,2.865-.745,4.97,4.97,0,0,1,1.679.479A5.052,5.052,0,0,1,387.256,219l-1.107.918a5.17,5.17,0,0,0-.592-.858,2.585,2.585,0,0,0-1.776-.955,1.754,1.754,0,0,0-1.452.344,1.593,1.593,0,0,0-.554,1.05,1.549,1.549,0,0,0,.421,1.278,8.785,8.785,0,0,0,2.176,1.606c1.089.649,1.872,1.144,2.368,1.506a3.807,3.807,0,0,1,1.222,1.568,4.272,4.272,0,0,1,.307,2.157,4.071,4.071,0,0,1-1.585,2.9,4.607,4.607,0,0,1-3.419.8" transform="translate(3.57 7.063)" fill="#263037"/>
    <path id="Path_5" data-name="Path 5" d="M397.591,218.053h-1.833v13.292h-2.826V218.053h-5.69l.038-1.318h14.207l.019,1.318Z" transform="translate(4.541 7.06)" fill="#263037"/>
    <path id="Path_6" data-name="Path 6" d="M407.548,231.344c-.823-2.063-1.147-2.789-1.147-2.789l-.936-2.273h-4.449l-1.949,5.062h-1.642l6.035-14.61h.956l6.225,14.61Zm-4.355-10.581-1.7,4.221h3.457Z" transform="translate(5.755 7.06)" fill="#263037"/>
    <path id="Path_7" data-name="Path 7" d="M411.16,231.345v-14.61h2.827v13.272h7.583v1.339Z" transform="translate(7.393 7.06)" fill="#263037"/>
    <path id="Path_8" data-name="Path 8" d="M435.064,226.187a25.787,25.787,0,0,1,2.56,5.157h-2.54c-.229-.937-2.063-6.532-5.558-6.532l-.152-.019v6.551h-2.807V216.735h3.418a12.277,12.277,0,0,1,3.264.325,4.452,4.452,0,0,1,2.16,1.241,3.259,3.259,0,0,1,.86,2.253,3.456,3.456,0,0,1-1.108,2.6,5.2,5.2,0,0,1-1.968,1.146,8.35,8.35,0,0,1,1.871,1.889m-5.272-8.022-.419-.019v5.35h1.165a3.585,3.585,0,0,0,.629-.1c.232-.057.439-.132.63-.19a2.107,2.107,0,0,0,.784-.536,1.654,1.654,0,0,0,.458-.725,3.317,3.317,0,0,0,.193-1.2,3.089,3.089,0,0,0-.611-1.987c-.344-.381-1.2-.592-2.828-.592" transform="translate(9.229 7.06)" fill="#263037"/>
    <path id="Path_9" data-name="Path 9" d="M443.04,218.055h-1.395v4.965H445.6v1.318h-3.953v5.67h6v1.32H438.8V216.718h8.881v1.336Z" transform="translate(10.688 7.058)" fill="#263037"/>
    <path id="Path_10" data-name="Path 10" d="M458.237,231.344c-.822-2.063-1.146-2.789-1.146-2.789l-.936-2.273h-4.45l-1.949,5.062h-1.641l6.034-14.61h.956l6.226,14.61Zm-4.354-10.581-1.7,4.221h3.457Z" transform="translate(11.799 7.06)" fill="#263037"/>
    <path id="Path_11" data-name="Path 11" d="M461.851,231.345v-14.61h2.825v13.272h7.583v1.339Z" transform="translate(13.436 7.06)" fill="#263037"/>
    <path id="Path_12" data-name="Path 12" d="M478.172,218.053h-1.834v13.292h-2.826V218.053h-5.689l.037-1.318h14.206l.02,1.318Z" transform="translate(14.149 7.06)" fill="#263037"/>
    <path id="Path_13" data-name="Path 13" d="M490.062,225.577v5.767h-2.826v-5.635l-5.6-8.974h3.516l4.221,7.3,4.2-7.3h1.853Z" transform="translate(15.796 7.06)" fill="#263037"/>
    <path id="Path_14" data-name="Path 14" d="M396.149,242.441a2.272,2.272,0,0,1-2.184,1.152,3.136,3.136,0,0,1-2.308-1.03l.613-.612a.9.9,0,0,0,.124.157,2.108,2.108,0,0,0,1.57.722,1.3,1.3,0,0,0,1.321-.688.955.955,0,0,0,.016-.649c-.173-.48-.656-.672-1.336-.881-.773-.233-1.661-.5-1.951-1.318a1.612,1.612,0,0,1,.1-1.311,2.162,2.162,0,0,1,1.852-.937,3.1,3.1,0,0,1,2.308,1.035l-.607.608a1.083,1.083,0,0,0-.133-.159,2.11,2.11,0,0,0-1.568-.722,1.228,1.228,0,0,0-1.021.532.925.925,0,0,0-.058.7c.164.457.639.648,1.3.847.789.241,1.678.507,1.993,1.344a1.7,1.7,0,0,1-.034,1.214" transform="translate(5.067 9.482)" fill="#263037"/>
    <path id="Path_15" data-name="Path 15" d="M403.6,240.314a3.166,3.166,0,1,1-3.164-3.269,3.226,3.226,0,0,1,3.164,3.269m-4.733-1.785a2.716,2.716,0,0,0,0,3.578,2.066,2.066,0,0,0,3.138,0,2.719,2.719,0,0,0,0-3.578,2.066,2.066,0,0,0-3.138,0" transform="translate(5.737 9.482)" fill="#263037"/>
    <path id="Path_16" data-name="Path 16" d="M409.481,237.184v3.786a2.5,2.5,0,1,1-5,0v-3.786h.921v3.786c0,.373.084,1.842,1.587,1.842s1.568-1.47,1.568-1.842v-3.786Z" transform="translate(6.596 9.498)" fill="#263037"/>
    <path id="Path_17" data-name="Path 17" d="M414.91,237.949h-1.926v5.464h-.922v-5.464h-1.925v-.766h4.774Z" transform="translate(7.27 9.498)" fill="#263037"/>
    <path id="Path_18" data-name="Path 18" d="M420.436,237.184v6.229h-.921V240.68h-2.93v2.732h-.922v-6.229h.922v2.731h2.93v-2.731Z" transform="translate(7.929 9.498)" fill="#263037"/>
    <path id="Path_19" data-name="Path 19" d="M429.983,243.414h-1l-.62-1.627h-2.451l-.613,1.627h-1l2.556-6.23h.565Zm-1.909-2.393-.93-2.457-.938,2.457Z" transform="translate(8.96 9.498)" fill="#263037"/>
    <path id="Path_20" data-name="Path 20" d="M431.784,237.949v1.942h2.63v.764h-2.63v2.758h-.923v-6.23H435v.766Z" transform="translate(9.741 9.498)" fill="#263037"/>
    <path id="Path_21" data-name="Path 21" d="M439.539,241.436l1.339,1.978h-1.021l-1.22-1.812h-1.454v1.812h-.921v-6.23h2.415a2.217,2.217,0,0,1,.862,4.252m-2.356-.6h1.486a1.454,1.454,0,0,0,0-2.889h-1.486Z" transform="translate(10.386 9.498)" fill="#263037"/>
    <rect id="Rectangle_1322" data-name="Rectangle 1322" width="0.921" height="6.229" transform="translate(453.337 246.682)" fill="#263037"/>
    <path id="Path_22" data-name="Path 22" d="M450.456,242.564a3.116,3.116,0,0,1-2.3,1.03,3.276,3.276,0,0,1,0-6.549,3.12,3.12,0,0,1,2.309,1.036l-.607.608a1.024,1.024,0,0,0-.132-.159,2.11,2.11,0,0,0-1.57-.722,2.087,2.087,0,0,0-1.567.722,2.709,2.709,0,0,0,0,3.578,2.094,2.094,0,0,0,1.567.721,2.117,2.117,0,0,0,1.57-.721c.04-.05.082-.1.124-.149Z" transform="translate(11.426 9.482)" fill="#263037"/>
    <path id="Path_23" data-name="Path 23" d="M456.746,243.414h-1l-.621-1.627h-2.449l-.616,1.627h-1l2.556-6.23h.564Zm-1.909-2.393-.929-2.457-.938,2.457Z" transform="translate(12.151 9.498)" fill="#263037"/>
    <path id="Path_24" data-name="Path 24" d="M424.232,208.619a25.53,25.53,0,1,1,25.529-25.532,25.558,25.558,0,0,1-25.529,25.532m0-50.351a24.821,24.821,0,1,0,24.818,24.819,24.849,24.849,0,0,0-24.818-24.819" transform="translate(5.907 0.004)" fill="#263037"/>
    <path id="Path_25" data-name="Path 25" d="M424.281,208.644a.354.354,0,0,1-.22-.076l-7.732-6.192-9.906-1.132a.357.357,0,0,1-.313-.311l-1.2-9.921-6.1-7.729a.355.355,0,0,1,0-.44l6.1-7.706,1.229-9.935a.352.352,0,0,1,.311-.308l9.811-1.117,7.84-6.178a.356.356,0,0,1,.441,0l7.67,6.15,9.968,1.168a.359.359,0,0,1,.31.318l1.051,9.939,6.242,7.706a.351.351,0,0,1,0,.447l-6.241,7.649-1.08,9.986a.352.352,0,0,1-.313.312l-9.86,1.1-7.786,6.193a.372.372,0,0,1-.222.075m-17.5-8.073,9.729,1.11a.361.361,0,0,1,.18.076l7.59,6.077,7.644-6.079a.38.38,0,0,1,.184-.075l9.676-1.081,1.061-9.8a.359.359,0,0,1,.078-.185l6.126-7.508-6.128-7.565a.369.369,0,0,1-.076-.186l-1.032-9.759-9.787-1.149a.354.354,0,0,1-.18-.078l-7.527-6.035-7.7,6.067a.369.369,0,0,1-.179.074l-9.633,1.095-1.207,9.755a.369.369,0,0,1-.074.179l-5.985,7.56,5.985,7.589a.363.363,0,0,1,.074.179Z" transform="translate(5.912 0)" fill="#263037"/>
    <path id="Path_26" data-name="Path 26" d="M415.815,201.726a.38.38,0,0,1-.134-.028.359.359,0,0,1-.214-.253l-1.909-8.964-9.036-1.928a.347.347,0,0,1-.255-.212.355.355,0,0,1,.035-.332l5.078-7.553-5.079-7.644a.356.356,0,0,1,.223-.545l8.994-1.852,1.881-9.033a.359.359,0,0,1,.546-.224l7.6,5.079,7.643-5.079a.359.359,0,0,1,.546.224l1.849,9,9.036,1.927a.354.354,0,0,1,.223.544l-5.08,7.553,5.08,7.57a.361.361,0,0,1,.034.332.352.352,0,0,1-.256.212l-8.993,1.925-1.785,9a.347.347,0,0,1-.209.26.351.351,0,0,1-.332-.031l-7.7-5.051-7.588,5.05a.367.367,0,0,1-.2.06m-10.632-11.758,8.748,1.867a.353.353,0,0,1,.274.272l1.848,8.677L423.4,195.9a.354.354,0,0,1,.392,0l7.452,4.888,1.727-8.71a.355.355,0,0,1,.274-.279l8.71-1.864-4.918-7.334a.349.349,0,0,1,0-.4l4.917-7.315-8.749-1.864a.352.352,0,0,1-.272-.276l-1.793-8.705-7.4,4.917a.357.357,0,0,1-.394,0l-7.357-4.916-1.824,8.745a.352.352,0,0,1-.275.275l-8.706,1.794,4.92,7.4a.351.351,0,0,1,0,.394Z" transform="translate(6.568 0.665)" fill="#263037"/>
    <path id="Path_27" data-name="Path 27" d="M423.043,195.992a.324.324,0,0,1-.135-.029l-9.741-4.008a.353.353,0,0,1-.193-.193l-4.049-9.724a.346.346,0,0,1,0-.273l4.01-9.742a.347.347,0,0,1,.193-.191l9.723-4.052a.363.363,0,0,1,.272,0l9.741,4.014a.358.358,0,0,1,.194.19l4.052,9.724a.357.357,0,0,1,0,.272l-4.014,9.743a.358.358,0,0,1-.191.193l-9.721,4.048a.34.34,0,0,1-.139.029m-9.47-4.638,9.47,3.9,9.451-3.935,3.9-9.471-3.939-9.453-9.468-3.9-9.454,3.937-3.9,9.471Z" transform="translate(7.123 1.22)" fill="#263037"/>
    <path id="Path_28" data-name="Path 28" d="M424.123,206.8a.355.355,0,0,1-.354-.321l-1.737-18.517-14.325,11.865a.356.356,0,0,1-.5-.5L419.073,185l-18.518-1.738a.355.355,0,0,1,0-.707l18.518-1.739L407.208,166.5a.355.355,0,0,1,.5-.5l14.325,11.866,1.737-18.519a.356.356,0,0,1,.708,0l1.737,18.519,14.323-11.866a.356.356,0,0,1,.5.5l-11.864,14.322,18.517,1.739a.355.355,0,0,1,0,.707L429.174,185l11.864,14.322a.358.358,0,0,1-.023.479.355.355,0,0,1-.477.023l-14.323-11.865-1.737,18.517a.355.355,0,0,1-.355.321m-1.8-19.9a.382.382,0,0,1,.135.029.35.35,0,0,1,.217.294l1.447,15.417,1.446-15.417a.358.358,0,0,1,.581-.242l11.928,9.881L428.2,184.938a.354.354,0,0,1-.055-.361.358.358,0,0,1,.294-.218l15.42-1.447-15.42-1.446a.359.359,0,0,1-.294-.219.354.354,0,0,1,.055-.362l9.881-11.929-11.928,9.881a.356.356,0,0,1-.581-.242l-1.446-15.417-1.447,15.417a.353.353,0,0,1-.217.3.36.36,0,0,1-.363-.055l-11.927-9.879,9.879,11.928a.354.354,0,0,1,.055.362.358.358,0,0,1-.3.219l-15.42,1.446,15.42,1.447a.355.355,0,0,1,.241.58l-9.879,11.928,11.927-9.881a.369.369,0,0,1,.227-.082" transform="translate(6.09 0.179)" fill="#263037"/>
  </g>
</svg>
