<svg xmlns="http://www.w3.org/2000/svg" width="162.066" height="95.553" viewBox="0 0 162.066 95.553">
  <g id="Group_7" data-name="Group 7" transform="translate(-349.649 -351.023)">
    <path id="Path_29" data-name="Path 29" d="M351.6,422.9a7,7,0,0,1-1.949-5.117,8.83,8.83,0,0,1,.9-3.9,6.147,6.147,0,0,1,2.521-2.768,7.1,7.1,0,0,1,3.514-.88,6.32,6.32,0,0,1,2.883.649,6.176,6.176,0,0,1,1.987,1.509l.058.4-.9.877a4.681,4.681,0,0,0-.955-1.125,4.369,4.369,0,0,0-2.788-.957,3.483,3.483,0,0,0-2.979,1.51,7.9,7.9,0,0,0-1.126,4.583,6.528,6.528,0,0,0,1.221,4.3,3.756,3.756,0,0,0,3.019,1.43,4.778,4.778,0,0,0,2-.478,4,4,0,0,0,1.6-1.6l1.05,1.05a6.389,6.389,0,0,1-5.06,2.465,6.854,6.854,0,0,1-5-1.95" transform="translate(0 7.06)" fill="#fff"/>
    <path id="Path_30" data-name="Path 30" d="M370.738,419.688a25.763,25.763,0,0,1,2.559,5.157h-2.54c-.229-.937-2.063-6.532-5.557-6.532l-.153-.019v6.551h-2.806V410.236h3.417a12.294,12.294,0,0,1,3.266.325,4.44,4.44,0,0,1,2.158,1.241,3.254,3.254,0,0,1,.86,2.253,3.451,3.451,0,0,1-1.108,2.6,5.209,5.209,0,0,1-1.966,1.146,8.4,8.4,0,0,1,1.871,1.889m-5.271-8.022-.421-.019V417h1.165a3.625,3.625,0,0,0,.631-.1c.228-.057.439-.132.63-.19a2.13,2.13,0,0,0,.782-.536,1.664,1.664,0,0,0,.458-.725,3.345,3.345,0,0,0,.191-1.2,3.089,3.089,0,0,0-.611-1.987c-.344-.381-1.2-.592-2.826-.592" transform="translate(1.501 7.06)" fill="#fff"/>
    <path id="Path_31" data-name="Path 31" d="M374.678,424.845v-14.61H377.5v14.61Z" transform="translate(2.984 7.06)" fill="#fff"/>
    <path id="Path_32" data-name="Path 32" d="M383.754,424.823a6.091,6.091,0,0,1-4.162-2.846l.954-1.032c1.28,1.851,1.968,2.348,3.19,2.541a2.343,2.343,0,0,0,1.892-.458,2.017,2.017,0,0,0,.8-1.4,1.833,1.833,0,0,0-.4-1.412,7.916,7.916,0,0,0-2.159-1.568,19.3,19.3,0,0,1-2.31-1.468,4.068,4.068,0,0,1-1.222-1.624,3.768,3.768,0,0,1-.306-1.986,3.553,3.553,0,0,1,1.395-2.54,3.91,3.91,0,0,1,2.864-.745,4.977,4.977,0,0,1,1.68.479,5.061,5.061,0,0,1,1.776,1.735l-1.107.918a5.14,5.14,0,0,0-.593-.858,2.583,2.583,0,0,0-1.776-.955,1.752,1.752,0,0,0-1.451.344,1.593,1.593,0,0,0-.554,1.05,1.549,1.549,0,0,0,.421,1.278,8.764,8.764,0,0,0,2.176,1.606c1.089.649,1.872,1.144,2.368,1.506a3.807,3.807,0,0,1,1.222,1.568,4.259,4.259,0,0,1,.306,2.157,4.07,4.07,0,0,1-1.584,2.9,4.607,4.607,0,0,1-3.419.8" transform="translate(3.57 7.063)" fill="#fff"/>
    <path id="Path_33" data-name="Path 33" d="M398.081,411.554h-1.833v13.292h-2.826V411.554H387.73l.039-1.318h14.208l.019,1.318Z" transform="translate(4.541 7.06)" fill="#fff"/>
    <path id="Path_34" data-name="Path 34" d="M408.037,424.845c-.823-2.063-1.146-2.789-1.146-2.789l-.936-2.273h-4.45l-1.949,5.062h-1.642l6.035-14.611h.956l6.225,14.611Zm-4.355-10.581-1.7,4.221h3.456Z" transform="translate(5.755 7.06)" fill="#fff"/>
    <path id="Path_35" data-name="Path 35" d="M411.65,424.845v-14.61h2.827v13.272h7.582v1.339Z" transform="translate(7.393 7.06)" fill="#fff"/>
    <path id="Path_36" data-name="Path 36" d="M435.554,419.688a25.789,25.789,0,0,1,2.56,5.157h-2.54c-.229-.937-2.063-6.532-5.558-6.532l-.152-.019v6.551h-2.807V410.236h3.418a12.276,12.276,0,0,1,3.264.325,4.452,4.452,0,0,1,2.16,1.241,3.26,3.26,0,0,1,.86,2.253,3.455,3.455,0,0,1-1.108,2.6,5.2,5.2,0,0,1-1.968,1.146,8.35,8.35,0,0,1,1.871,1.889m-5.272-8.022-.419-.019V417h1.165a3.584,3.584,0,0,0,.629-.1c.232-.057.439-.132.63-.19a2.107,2.107,0,0,0,.783-.536,1.654,1.654,0,0,0,.458-.725,3.319,3.319,0,0,0,.193-1.2,3.089,3.089,0,0,0-.611-1.987c-.344-.381-1.2-.592-2.828-.592" transform="translate(9.23 7.06)" fill="#fff"/>
    <path id="Path_37" data-name="Path 37" d="M443.529,411.555h-1.395v4.965h3.953v1.318h-3.953v5.67h6v1.32h-8.842V410.219h8.881v1.336Z" transform="translate(10.688 7.058)" fill="#fff"/>
    <path id="Path_38" data-name="Path 38" d="M458.726,424.845c-.822-2.063-1.146-2.789-1.146-2.789l-.936-2.273h-4.45l-1.949,5.062H448.6l6.034-14.611h.956l6.226,14.611Zm-4.354-10.581-1.7,4.221h3.457Z" transform="translate(11.799 7.06)" fill="#fff"/>
    <path id="Path_39" data-name="Path 39" d="M462.34,424.845v-14.61h2.825v13.272h7.583v1.339Z" transform="translate(13.437 7.06)" fill="#fff"/>
    <path id="Path_40" data-name="Path 40" d="M478.662,411.554h-1.834v13.292H474V411.554h-5.689l.037-1.318h14.206l.02,1.318Z" transform="translate(14.149 7.06)" fill="#fff"/>
    <path id="Path_41" data-name="Path 41" d="M490.552,419.078v5.767h-2.826V419.21l-5.6-8.974h3.516l4.221,7.3,4.2-7.3h1.853Z" transform="translate(15.796 7.06)" fill="#fff"/>
    <path id="Path_42" data-name="Path 42" d="M396.639,435.942a2.272,2.272,0,0,1-2.184,1.152,3.136,3.136,0,0,1-2.308-1.03l.613-.612a.9.9,0,0,0,.124.157,2.106,2.106,0,0,0,1.57.722,1.3,1.3,0,0,0,1.32-.688.958.958,0,0,0,.017-.649c-.175-.48-.656-.672-1.336-.881-.773-.233-1.661-.5-1.952-1.318a1.616,1.616,0,0,1,.1-1.311,2.162,2.162,0,0,1,1.852-.937,3.1,3.1,0,0,1,2.308,1.035l-.607.608a1.074,1.074,0,0,0-.133-.159,2.11,2.11,0,0,0-1.568-.722,1.23,1.23,0,0,0-1.022.532.931.931,0,0,0-.058.7c.166.457.64.648,1.3.847.789.241,1.678.507,1.993,1.344a1.7,1.7,0,0,1-.034,1.214" transform="translate(5.067 9.482)" fill="#fff"/>
    <path id="Path_43" data-name="Path 43" d="M404.089,433.815a3.165,3.165,0,1,1-3.163-3.269,3.225,3.225,0,0,1,3.163,3.269m-4.732-1.785a2.715,2.715,0,0,0,0,3.578,2.066,2.066,0,0,0,3.138,0,2.719,2.719,0,0,0,0-3.578,2.066,2.066,0,0,0-3.138,0" transform="translate(5.737 9.482)" fill="#fff"/>
    <path id="Path_44" data-name="Path 44" d="M409.971,430.685v3.786a2.5,2.5,0,1,1-5,0v-3.786h.921v3.786c0,.373.083,1.842,1.587,1.842s1.568-1.47,1.568-1.842v-3.786Z" transform="translate(6.596 9.498)" fill="#fff"/>
    <path id="Path_45" data-name="Path 45" d="M415.4,431.45h-1.926v5.464h-.922V431.45h-1.925v-.766H415.4Z" transform="translate(7.27 9.498)" fill="#fff"/>
    <path id="Path_46" data-name="Path 46" d="M420.926,430.684v6.229H420v-2.732h-2.93v2.732h-.921v-6.229h.921v2.731H420v-2.731Z" transform="translate(7.929 9.498)" fill="#fff"/>
    <path id="Path_47" data-name="Path 47" d="M430.473,436.914h-1l-.62-1.627H426.4l-.613,1.627h-1l2.556-6.23h.565Zm-1.909-2.393-.93-2.457-.938,2.457Z" transform="translate(8.96 9.498)" fill="#fff"/>
    <path id="Path_48" data-name="Path 48" d="M432.274,431.45v1.942h2.63v.764h-2.63v2.758h-.923v-6.23h4.136v.766Z" transform="translate(9.742 9.498)" fill="#fff"/>
    <path id="Path_49" data-name="Path 49" d="M440.029,434.936l1.339,1.978h-1.021l-1.22-1.812h-1.454v1.812h-.921v-6.23h2.415a2.217,2.217,0,0,1,.862,4.252m-2.356-.6h1.486a1.454,1.454,0,0,0,0-2.889h-1.486Z" transform="translate(10.386 9.498)" fill="#fff"/>
    <rect id="Rectangle_1344" data-name="Rectangle 1344" width="0.921" height="6.229" transform="translate(453.827 440.183)" fill="#fff"/>
    <path id="Path_50" data-name="Path 50" d="M450.946,436.065a3.116,3.116,0,0,1-2.3,1.03,3.276,3.276,0,0,1,0-6.549,3.12,3.12,0,0,1,2.309,1.036l-.607.608a1.024,1.024,0,0,0-.132-.159,2.11,2.11,0,0,0-1.57-.722,2.087,2.087,0,0,0-1.567.722,2.709,2.709,0,0,0,0,3.578,2.094,2.094,0,0,0,1.567.721,2.117,2.117,0,0,0,1.57-.721c.04-.05.082-.1.124-.149Z" transform="translate(11.426 9.482)" fill="#fff"/>
    <path id="Path_51" data-name="Path 51" d="M457.236,436.914h-1l-.621-1.627h-2.449l-.616,1.627h-.995l2.556-6.23h.564Zm-1.909-2.393-.929-2.457-.938,2.457Z" transform="translate(12.151 9.498)" fill="#fff"/>
    <path id="Path_52" data-name="Path 52" d="M424.721,402.12a25.53,25.53,0,1,1,25.529-25.532,25.558,25.558,0,0,1-25.529,25.532m0-50.351a24.821,24.821,0,1,0,24.818,24.819,24.848,24.848,0,0,0-24.818-24.819" transform="translate(5.907 0.004)" fill="#fff"/>
    <path id="Path_53" data-name="Path 53" d="M424.77,402.144a.356.356,0,0,1-.221-.076l-7.731-6.192-9.907-1.132a.357.357,0,0,1-.313-.311l-1.2-9.921-6.1-7.729a.356.356,0,0,1,0-.44l6.1-7.706,1.229-9.935a.353.353,0,0,1,.312-.308l9.81-1.117,7.84-6.178a.358.358,0,0,1,.442,0l7.669,6.15,9.968,1.168a.36.36,0,0,1,.311.318l1.05,9.939,6.242,7.706a.351.351,0,0,1,0,.447l-6.241,7.649-1.08,9.986a.35.35,0,0,1-.313.312l-9.859,1.1-7.788,6.193a.368.368,0,0,1-.222.075m-17.5-8.073,9.729,1.11a.369.369,0,0,1,.181.076l7.588,6.077,7.644-6.079a.384.384,0,0,1,.184-.075l9.677-1.081,1.06-9.8a.369.369,0,0,1,.078-.185l6.126-7.508-6.127-7.565a.371.371,0,0,1-.077-.186l-1.032-9.759-9.787-1.149a.363.363,0,0,1-.18-.078l-7.527-6.035-7.7,6.067a.368.368,0,0,1-.179.074l-9.633,1.095-1.207,9.755a.358.358,0,0,1-.074.179l-5.983,7.56,5.983,7.59a.375.375,0,0,1,.075.179Z" transform="translate(5.912)" fill="#fff"/>
    <path id="Path_54" data-name="Path 54" d="M416.305,395.226a.38.38,0,0,1-.135-.028.355.355,0,0,1-.213-.253l-1.909-8.964-9.037-1.928a.347.347,0,0,1-.255-.212.355.355,0,0,1,.035-.332l5.078-7.553-5.079-7.644a.356.356,0,0,1,.224-.545l8.993-1.852,1.881-9.033a.357.357,0,0,1,.215-.255.352.352,0,0,1,.331.031l7.6,5.079,7.644-5.079a.358.358,0,0,1,.545.224l1.85,9,9.036,1.927a.354.354,0,0,1,.222.544L438.25,375.9l5.079,7.57a.358.358,0,0,1,.034.332.352.352,0,0,1-.255.212l-8.993,1.925-1.785,9a.353.353,0,0,1-.542.228l-7.7-5.051-7.588,5.05a.363.363,0,0,1-.2.06m-10.633-11.758,8.749,1.867a.35.35,0,0,1,.273.272l1.848,8.677,7.349-4.889a.354.354,0,0,1,.392,0l7.453,4.888,1.727-8.71a.355.355,0,0,1,.274-.279l8.71-1.864-4.919-7.334a.349.349,0,0,1,0-.4l4.918-7.315-8.749-1.864a.355.355,0,0,1-.273-.276l-1.792-8.705-7.4,4.917a.357.357,0,0,1-.394,0l-7.357-4.916-1.823,8.745a.352.352,0,0,1-.275.275l-8.707,1.794,4.919,7.4a.351.351,0,0,1,0,.394Z" transform="translate(6.567 0.665)" fill="#fff"/>
    <path id="Path_55" data-name="Path 55" d="M423.533,389.493a.318.318,0,0,1-.135-.029l-9.741-4.008a.353.353,0,0,1-.193-.193l-4.05-9.724a.366.366,0,0,1,0-.273l4.01-9.742a.351.351,0,0,1,.193-.191l9.724-4.052a.363.363,0,0,1,.272,0l9.741,4.014a.357.357,0,0,1,.195.19l4.051,9.724a.358.358,0,0,1,0,.272l-4.013,9.743a.368.368,0,0,1-.193.193l-9.721,4.048a.344.344,0,0,1-.139.029m-9.47-4.638,9.47,3.9,9.451-3.935,3.9-9.471-3.937-9.453-9.468-3.9-9.454,3.937-3.9,9.471Z" transform="translate(7.123 1.22)" fill="#fff"/>
    <path id="Path_56" data-name="Path 56" d="M424.613,400.3a.356.356,0,0,1-.355-.321l-1.737-18.517L408.2,393.328a.356.356,0,0,1-.5-.5L419.562,378.5l-18.518-1.738a.355.355,0,0,1,0-.707l18.518-1.739L407.7,360a.356.356,0,0,1,.021-.479.361.361,0,0,1,.478-.022l14.324,11.866,1.737-18.519a.356.356,0,0,1,.708,0l1.737,18.519L441.028,359.5a.355.355,0,0,1,.5.5l-11.863,14.322,18.517,1.739a.355.355,0,0,1,0,.707L429.664,378.5l11.863,14.322a.356.356,0,0,1-.5.5L426.7,381.463l-1.737,18.517a.355.355,0,0,1-.354.321m-1.8-19.9a.377.377,0,0,1,.135.029.351.351,0,0,1,.218.294l1.447,15.417,1.446-15.417a.357.357,0,0,1,.58-.242l11.929,9.881-9.881-11.928a.351.351,0,0,1-.055-.362.356.356,0,0,1,.293-.218l15.421-1.447-15.421-1.446a.358.358,0,0,1-.293-.219.351.351,0,0,1,.055-.362l9.881-11.929-11.929,9.881a.355.355,0,0,1-.58-.242l-1.446-15.417L423.166,372.1a.355.355,0,0,1-.218.3.36.36,0,0,1-.363-.055l-11.927-9.879,9.88,11.928a.354.354,0,0,1,.055.362.358.358,0,0,1-.3.219l-15.42,1.446,15.42,1.447a.355.355,0,0,1,.241.58l-9.88,11.928,11.927-9.881a.369.369,0,0,1,.227-.082" transform="translate(6.09 0.179)" fill="#fff"/>
  </g>
</svg>
