<svg xmlns="http://www.w3.org/2000/svg" width="91.697" height="91.612" viewBox="0 0 91.697 91.612">
  <g id="Group_11" data-name="Group 11" transform="translate(-672.542 -2116)">
    <path id="Path_57" data-name="Path 57" d="M444.943,442.563a45.752,45.752,0,1,1,45.75-45.755,45.8,45.8,0,0,1-45.75,45.755m0-90.232a44.48,44.48,0,1,0,44.477,44.478,44.529,44.529,0,0,0-44.477-44.478" transform="translate(273.351 1765.013)" fill="#fff"/>
    <path id="Path_58" data-name="Path 58" d="M445,442.635a.639.639,0,0,1-.4-.136l-13.854-11.1L413,429.375a.639.639,0,0,1-.562-.558l-2.146-17.779-10.924-13.852a.638.638,0,0,1,0-.788l10.924-13.81,2.2-17.8a.633.633,0,0,1,.56-.552l17.581-2,14.051-11.072a.642.642,0,0,1,.792,0l13.744,11.022,17.864,2.094a.645.645,0,0,1,.558.57l1.881,17.811,11.186,13.81a.629.629,0,0,1,0,.8l-11.184,13.707-1.936,17.9a.628.628,0,0,1-.562.56L459.355,431.4,445.4,442.5a.659.659,0,0,1-.4.134m-31.359-14.468,17.436,1.99a.662.662,0,0,1,.325.136L445,441.185l13.7-10.893a.687.687,0,0,1,.329-.134l17.342-1.938,1.9-17.57a.66.66,0,0,1,.14-.331l10.978-13.455-10.98-13.557a.666.666,0,0,1-.138-.333l-1.849-17.488-17.539-2.06a.649.649,0,0,1-.323-.14l-13.489-10.815-13.8,10.873a.662.662,0,0,1-.321.132l-17.264,1.962-2.162,17.482a.641.641,0,0,1-.132.321L400.675,396.79l10.723,13.6a.67.67,0,0,1,.134.321Z" transform="translate(273.389 1764.976)" fill="#fff"/>
    <path id="Path_59" data-name="Path 59" d="M425.474,425.822a.684.684,0,0,1-.243-.05.636.636,0,0,1-.381-.453l-3.422-16.064L405.234,405.8a.623.623,0,0,1-.457-.379.636.636,0,0,1,.062-.6l9.1-13.535-9.1-13.7a.638.638,0,0,1,.4-.977l16.117-3.32,3.372-16.188a.639.639,0,0,1,.385-.457.631.631,0,0,1,.594.056l13.617,9.1,13.7-9.1a.641.641,0,0,1,.977.4l3.315,16.12,16.193,3.454a.635.635,0,0,1,.4.975l-9.1,13.535,9.1,13.567a.641.641,0,0,1,.06.6.631.631,0,0,1-.457.379l-16.117,3.45-3.2,16.126a.633.633,0,0,1-.971.409l-13.8-9.052-13.6,9.05a.652.652,0,0,1-.351.108m-19.055-21.07L422.1,408.1a.627.627,0,0,1,.489.487l3.311,15.551,13.17-8.761a.634.634,0,0,1,.7,0l13.357,8.759,3.095-15.609a.636.636,0,0,1,.491-.5l15.609-3.34-8.816-13.144a.625.625,0,0,1,0-.708l8.814-13.11-15.679-3.34a.636.636,0,0,1-.489-.5l-3.211-15.6L439.673,367.1a.641.641,0,0,1-.706,0l-13.184-8.809-3.268,15.671a.63.63,0,0,1-.493.493l-15.6,3.215,8.816,13.268a.629.629,0,0,1,0,.706Z" transform="translate(278.922 1770.583)" fill="#fff"/>
    <path id="Path_60" data-name="Path 60" d="M434.738,411.86a.571.571,0,0,1-.243-.052l-17.456-7.183a.632.632,0,0,1-.345-.345l-7.259-17.426a.655.655,0,0,1,0-.489l7.187-17.458a.629.629,0,0,1,.345-.343l17.426-7.261a.65.65,0,0,1,.487,0l17.456,7.193a.639.639,0,0,1,.349.341l7.259,17.426a.642.642,0,0,1,0,.487l-7.191,17.46a.659.659,0,0,1-.345.345l-17.42,7.255a.617.617,0,0,1-.249.052m-16.971-8.312,16.971,6.984,16.937-7.052,6.988-16.973-7.056-16.941-16.967-6.988L417.7,369.635l-6.986,16.973Z" transform="translate(283.606 1775.267)" fill="#fff"/>
    <path id="Path_61" data-name="Path 61" d="M443.538,438.144a.638.638,0,0,1-.636-.576l-3.113-33.183-25.67,21.263a.637.637,0,0,1-.895-.9l21.261-25.666L401.3,395.967a.636.636,0,0,1,0-1.268l33.186-3.117-21.261-25.666a.638.638,0,0,1,.038-.858.646.646,0,0,1,.856-.04l25.67,21.265L442.9,353.1a.638.638,0,0,1,1.27,0l3.113,33.187,25.67-21.265a.637.637,0,0,1,.895.9L452.59,391.583l33.184,3.117a.636.636,0,0,1,0,1.268l-33.184,3.115,21.259,25.666a.638.638,0,0,1-.895.9l-25.67-21.263-3.113,33.183a.636.636,0,0,1-.634.576m-3.227-35.656a.677.677,0,0,1,.243.052.63.63,0,0,1,.391.528l2.593,27.629,2.591-27.629a.639.639,0,0,1,1.039-.433l21.378,17.707-17.707-21.375a.629.629,0,0,1-.1-.648.638.638,0,0,1,.525-.391l27.636-2.593-27.636-2.591a.64.64,0,0,1-.525-.393.629.629,0,0,1,.1-.648l17.707-21.377-21.378,17.707a.636.636,0,0,1-1.039-.433l-2.591-27.629L440.944,387.6a.636.636,0,0,1-.391.531.646.646,0,0,1-.65-.1l-21.374-17.7L436.235,391.7a.634.634,0,0,1,.1.648.641.641,0,0,1-.53.393l-27.634,2.591,27.634,2.593a.636.636,0,0,1,.431,1.039L418.53,420.341,439.9,402.635a.662.662,0,0,1,.407-.146" transform="translate(274.891 1766.486)" fill="#fff"/>
  </g>
</svg>
