<?xml version="1.0" encoding="UTF-8"?>
<svg xmlns="http://www.w3.org/2000/svg" xmlns:xlink="http://www.w3.org/1999/xlink" width="256px" height="256px" viewBox="0 0 256 256" version="1.1">
<defs>
<filter id="alpha" filterUnits="objectBoundingBox" x="0%" y="0%" width="100%" height="100%">
  <feColorMatrix type="matrix" in="SourceGraphic" values="0 0 0 0 1 0 0 0 0 1 0 0 0 0 1 0 0 0 1 0"/>
</filter>
<mask id="mask0">
  <g filter="url(#alpha)">
<rect x="0" y="0" width="256" height="256" style="fill:rgb(0%,0%,0%);fill-opacity:0.6;stroke:none;"/>
  </g>
</mask>
<clipPath id="clip1">
  <rect x="0" y="0" width="256" height="256"/>
</clipPath>
<g id="surface5" clip-path="url(#clip1)">
<path style=" stroke:none;fill-rule:nonzero;fill:rgb(14.901961%,18.823529%,21.568627%);fill-opacity:1;" d="M 3.078125 210.484375 C 0.996094 206.832031 -0.113281 201.90625 0 196.839844 C -0.00390625 193.234375 0.484375 189.675781 1.421875 186.441406 C 2.261719 183.339844 3.65625 180.761719 5.40625 179.058594 C 7.105469 177.480469 9.019531 176.671875 10.960938 176.710938 C 12.539062 176.671875 14.097656 177.265625 15.515625 178.441406 C 16.710938 179.410156 17.78125 180.777344 18.65625 182.464844 L 18.746094 183.535156 L 17.324219 185.871094 C 16.917969 184.742188 16.40625 183.730469 15.8125 182.871094 C 14.5625 181.183594 13.007812 180.28125 11.40625 180.320312 C 9.535156 180.222656 7.761719 181.738281 6.699219 184.347656 C 5.382812 188.019531 4.761719 192.28125 4.917969 196.566406 C 4.742188 200.65625 5.425781 204.714844 6.851562 208.035156 C 8 210.492188 9.761719 211.90625 11.617188 211.847656 C 12.714844 211.816406 13.792969 211.378906 14.777344 210.574219 C 15.847656 209.589844 16.726562 208.109375 17.308594 206.308594 L 18.964844 209.105469 C 17.046875 213.269531 14.09375 215.695312 10.96875 215.679688 C 8.027344 215.832031 5.175781 213.953125 3.070312 210.480469 "/>
<path style=" stroke:none;fill-rule:nonzero;fill:rgb(14.901961%,18.823529%,21.568627%);fill-opacity:1;" d="M 35.699219 201.929688 C 37.347656 206.246094 38.703125 210.859375 39.742188 215.683594 L 35.730469 215.683594 C 35.367188 213.183594 32.46875 198.265625 26.949219 198.265625 L 26.707031 198.214844 L 26.707031 215.683594 L 22.269531 215.683594 L 22.269531 176.726562 L 27.671875 176.726562 C 29.40625 176.625 31.144531 176.914062 32.832031 177.59375 C 34.132812 178.125 35.316406 179.273438 36.242188 180.902344 C 37.136719 182.535156 37.621094 184.6875 37.601562 186.910156 C 37.632812 189.535156 36.996094 192.058594 35.851562 193.84375 C 34.960938 195.238281 33.898438 196.28125 32.742188 196.898438 C 33.878906 198.300781 34.878906 200.003906 35.699219 201.9375 M 27.371094 180.542969 L 26.707031 180.492188 L 26.707031 194.761719 L 28.546875 194.761719 C 28.882812 194.71875 29.21875 194.632812 29.542969 194.492188 C 29.90625 194.339844 30.238281 194.140625 30.539062 193.988281 C 31.007812 193.675781 31.429688 193.1875 31.773438 192.558594 C 32.113281 192.03125 32.363281 191.363281 32.496094 190.625 C 32.714844 189.597656 32.820312 188.511719 32.804688 187.425781 C 32.855469 185.523438 32.511719 183.648438 31.835938 182.125 C 31.296875 181.109375 29.9375 180.546875 27.371094 180.546875 "/>
<path style=" stroke:none;fill-rule:nonzero;fill:rgb(14.901961%,18.823529%,21.568627%);fill-opacity:1;" d="M 44.265625 215.683594 L 44.265625 176.726562 L 48.734375 176.726562 L 48.734375 215.683594 Z M 44.265625 215.683594 "/>
<path style=" stroke:none;fill-rule:nonzero;fill:rgb(14.901961%,18.823529%,21.568627%);fill-opacity:1;" d="M 59.535156 215.632812 C 56.796875 214.824219 54.398438 212.058594 52.957031 208.046875 L 54.46875 205.292969 C 56.488281 210.230469 57.578125 211.554688 59.507812 212.070312 C 60.5625 212.414062 61.652344 211.96875 62.496094 210.847656 C 63.207031 209.953125 63.667969 208.601562 63.761719 207.113281 C 63.871094 205.765625 63.640625 204.402344 63.128906 203.347656 C 62.140625 201.640625 60.988281 200.226562 59.71875 199.167969 C 58.449219 198.011719 57.226562 196.703125 56.066406 195.253906 C 55.21875 194.109375 54.554688 192.617188 54.136719 190.921875 C 53.695312 189.265625 53.527344 187.433594 53.652344 185.625 C 53.785156 182.941406 54.585938 180.480469 55.855469 178.851562 C 57.152344 177.214844 58.78125 176.503906 60.382812 176.867188 C 61.304688 177.023438 62.203125 177.457031 63.039062 178.144531 C 64.1875 179.269531 65.152344 180.859375 65.84375 182.773438 L 64.09375 185.222656 C 63.828125 184.40625 63.515625 183.640625 63.160156 182.933594 C 62.464844 181.476562 61.453125 180.558594 60.351562 180.386719 C 59.546875 180.101562 58.703125 180.4375 58.058594 181.304688 C 57.5625 182.011719 57.25 183.015625 57.183594 184.105469 C 57.085938 185.351562 57.332031 186.605469 57.847656 187.511719 C 58.855469 189.230469 60.015625 190.675781 61.285156 191.792969 C 63.007812 193.523438 64.246094 194.84375 65.027344 195.8125 C 65.878906 196.890625 66.546875 198.335938 66.960938 199.992188 C 67.414062 201.804688 67.582031 203.789062 67.445312 205.742188 C 67.296875 208.804688 66.386719 211.613281 64.941406 213.476562 C 63.375 215.363281 61.433594 216.132812 59.539062 215.609375 "/>
<path style=" stroke:none;fill-rule:nonzero;fill:rgb(14.901961%,18.823529%,21.568627%);fill-opacity:1;" d="M 83.710938 180.238281 L 80.8125 180.238281 L 80.8125 215.683594 L 76.347656 215.683594 L 76.347656 180.238281 L 67.355469 180.238281 L 67.417969 176.726562 L 89.867188 176.726562 L 89.898438 180.238281 Z M 83.710938 180.238281 "/>
<path style=" stroke:none;fill-rule:nonzero;fill:rgb(14.901961%,18.823529%,21.568627%);fill-opacity:1;" d="M 101.363281 215.683594 C 100.0625 210.179688 99.550781 208.246094 99.550781 208.246094 L 98.070312 202.183594 L 91.042969 202.183594 L 87.960938 215.683594 L 85.367188 215.683594 L 94.902344 176.722656 L 96.414062 176.722656 L 106.25 215.683594 Z M 94.480469 187.464844 L 91.796875 198.722656 L 97.257812 198.722656 Z M 94.480469 187.464844 "/>
<path style=" stroke:none;fill-rule:nonzero;fill:rgb(14.901961%,18.823529%,21.568627%);fill-opacity:1;" d="M 109.660156 215.683594 L 109.660156 176.726562 L 114.128906 176.726562 L 114.128906 212.117188 L 126.109375 212.117188 L 126.109375 215.6875 Z M 109.660156 215.683594 "/>
<path style=" stroke:none;fill-rule:nonzero;fill:rgb(14.901961%,18.823529%,21.568627%);fill-opacity:1;" d="M 150.335938 201.929688 C 151.984375 206.246094 153.339844 210.859375 154.378906 215.683594 L 150.367188 215.683594 C 150.003906 213.183594 147.105469 198.265625 141.582031 198.265625 L 141.34375 198.214844 L 141.34375 215.683594 L 136.90625 215.683594 L 136.90625 176.726562 L 142.308594 176.726562 C 144.042969 176.625 145.777344 176.914062 147.46875 177.59375 C 148.769531 178.125 149.953125 179.273438 150.878906 180.902344 C 151.773438 182.535156 152.257812 184.6875 152.238281 186.910156 C 152.269531 189.535156 151.632812 192.058594 150.488281 193.84375 C 149.597656 195.238281 148.535156 196.28125 147.378906 196.898438 C 148.515625 198.300781 149.515625 200 150.335938 201.9375 M 142.003906 180.542969 L 141.34375 180.492188 L 141.34375 194.761719 L 143.183594 194.761719 C 143.519531 194.722656 143.851562 194.632812 144.175781 194.492188 C 144.542969 194.339844 144.871094 194.140625 145.171875 193.988281 C 145.644531 193.675781 146.066406 193.1875 146.410156 192.558594 C 146.75 192.03125 147 191.363281 147.136719 190.625 C 147.351562 189.597656 147.457031 188.511719 147.441406 187.425781 C 147.492188 185.523438 147.148438 183.648438 146.476562 182.125 C 145.929688 181.109375 144.578125 180.546875 142.003906 180.546875 "/>
<path style=" stroke:none;fill-rule:nonzero;fill:rgb(14.901961%,18.823529%,21.568627%);fill-opacity:1;" d="M 165.246094 180.238281 L 163.039062 180.238281 L 163.039062 193.480469 L 169.289062 193.480469 L 169.289062 196.996094 L 163.042969 196.996094 L 163.042969 212.113281 L 172.523438 212.113281 L 172.523438 215.632812 L 158.542969 215.632812 L 158.542969 176.675781 L 172.578125 176.675781 L 172.578125 180.238281 Z M 165.246094 180.238281 "/>
<path style=" stroke:none;fill-rule:nonzero;fill:rgb(14.901961%,18.823529%,21.568627%);fill-opacity:1;" d="M 191.015625 215.683594 C 189.714844 210.179688 189.203125 208.246094 189.203125 208.246094 L 187.726562 202.183594 L 180.691406 202.183594 L 177.613281 215.683594 L 175.019531 215.683594 L 184.554688 176.722656 L 186.066406 176.722656 L 195.90625 215.683594 Z M 184.136719 187.464844 L 181.449219 198.722656 L 186.910156 198.722656 Z M 184.136719 187.464844 "/>
<path style=" stroke:none;fill-rule:nonzero;fill:rgb(14.901961%,18.823529%,21.568627%);fill-opacity:1;" d="M 199.3125 215.683594 L 199.3125 176.726562 L 203.777344 176.726562 L 203.777344 212.117188 L 215.761719 212.117188 L 215.761719 215.6875 Z M 199.3125 215.683594 "/>
<path style=" stroke:none;fill-rule:nonzero;fill:rgb(14.901961%,18.823529%,21.568627%);fill-opacity:1;" d="M 226.230469 180.238281 L 223.332031 180.238281 L 223.332031 215.683594 L 218.867188 215.683594 L 218.867188 180.238281 L 209.878906 180.238281 L 209.9375 176.726562 L 232.386719 176.726562 L 232.417969 180.238281 Z M 226.230469 180.238281 "/>
<path style=" stroke:none;fill-rule:nonzero;fill:rgb(14.901961%,18.823529%,21.568627%);fill-opacity:1;" d="M 247.625 200.304688 L 247.625 215.683594 L 243.15625 215.683594 L 243.15625 200.65625 L 234.308594 176.726562 L 239.863281 176.726562 L 246.535156 196.191406 L 253.171875 176.726562 L 256.097656 176.726562 Z M 247.625 200.304688 "/>
<path style=" stroke:none;fill-rule:nonzero;fill:rgb(14.901961%,18.823529%,21.568627%);fill-opacity:1;" d="M 82.261719 251.734375 C 81.570312 253.816406 80.21875 255.019531 78.8125 254.804688 C 77.421875 254.792969 76.097656 253.796875 75.164062 252.058594 L 76.132812 250.425781 C 76.1875 250.578125 76.253906 250.71875 76.328125 250.84375 C 76.953125 252.054688 77.859375 252.757812 78.808594 252.769531 C 79.664062 252.960938 80.5 252.226562 80.898438 250.9375 C 81.027344 250.382812 81.035156 249.769531 80.921875 249.207031 C 80.648438 247.925781 79.886719 247.414062 78.8125 246.855469 C 77.589844 246.234375 76.1875 245.523438 75.730469 243.339844 C 75.484375 242.191406 75.542969 240.917969 75.886719 239.84375 C 76.546875 238.226562 77.648438 237.285156 78.8125 237.347656 C 80.207031 237.351562 81.53125 238.351562 82.460938 240.105469 L 81.5 241.726562 C 81.4375 241.574219 81.367188 241.433594 81.292969 241.304688 C 80.664062 240.09375 79.765625 239.394531 78.8125 239.378906 C 78.167969 239.371094 77.566406 239.902344 77.199219 240.796875 C 77.023438 241.375 76.992188 242.046875 77.109375 242.664062 C 77.367188 243.882812 78.117188 244.390625 79.164062 244.921875 C 80.410156 245.566406 81.8125 246.273438 82.3125 248.507812 C 82.53125 249.558594 82.511719 250.710938 82.257812 251.742188 "/>
<path style=" stroke:none;fill-rule:nonzero;fill:rgb(14.901961%,18.823529%,21.568627%);fill-opacity:1;" d="M 95.097656 246.0625 C 95.007812 250.6875 92.726562 254.328125 89.988281 254.226562 C 87.246094 254.125 85.0625 250.320312 85.09375 245.695312 C 85.121094 241.066406 87.355469 237.34375 90.097656 237.34375 C 92.898438 237.433594 95.132812 241.328125 95.097656 246.0625 M 87.617188 241.300781 C 86.199219 244.03125 86.199219 248.113281 87.617188 250.84375 C 88.238281 252.066406 89.144531 252.769531 90.097656 252.769531 C 91.050781 252.769531 91.957031 252.066406 92.574219 250.84375 C 93.992188 248.109375 93.992188 244.035156 92.574219 241.300781 C 91.957031 240.078125 91.050781 239.375 90.097656 239.375 C 89.144531 239.375 88.238281 240.078125 87.617188 241.300781 "/>
<path style=" stroke:none;fill-rule:nonzero;fill:rgb(14.901961%,18.823529%,21.568627%);fill-opacity:1;" d="M 105.746094 237.757812 L 105.746094 247.851562 C 105.746094 251.535156 103.976562 254.519531 101.796875 254.519531 C 99.613281 254.519531 97.847656 251.535156 97.847656 247.851562 L 97.847656 237.757812 L 99.300781 237.757812 L 99.300781 247.851562 C 99.300781 248.847656 99.433594 252.765625 101.808594 252.765625 C 104.183594 252.765625 104.285156 248.84375 104.285156 247.851562 L 104.285156 237.757812 Z M 105.746094 237.757812 "/>
<path style=" stroke:none;fill-rule:nonzero;fill:rgb(14.901961%,18.823529%,21.568627%);fill-opacity:1;" d="M 115.390625 239.796875 L 112.347656 239.796875 L 112.347656 254.367188 L 110.890625 254.367188 L 110.890625 239.796875 L 107.847656 239.796875 L 107.847656 237.753906 L 115.394531 237.753906 Z M 115.390625 239.796875 "/>
<path style=" stroke:none;fill-rule:nonzero;fill:rgb(14.901961%,18.823529%,21.568627%);fill-opacity:1;" d="M 125.164062 237.757812 L 125.164062 254.367188 L 123.710938 254.367188 L 123.710938 247.078125 L 119.078125 247.078125 L 119.078125 254.367188 L 117.621094 254.367188 L 117.621094 237.753906 L 119.078125 237.753906 L 119.078125 245.039062 L 123.710938 245.039062 L 123.710938 237.753906 Z M 125.164062 237.757812 "/>
<path style=" stroke:none;fill-rule:nonzero;fill:rgb(14.901961%,18.823529%,21.568627%);fill-opacity:1;" d="M 141.882812 254.371094 L 140.300781 254.371094 L 139.320312 250.03125 L 135.449219 250.03125 L 134.480469 254.371094 L 132.898438 254.371094 L 136.9375 237.757812 L 137.832031 237.757812 Z M 138.863281 247.988281 L 137.394531 241.4375 L 135.914062 247.988281 Z M 138.863281 247.988281 "/>
<path style=" stroke:none;fill-rule:nonzero;fill:rgb(14.901961%,18.823529%,21.568627%);fill-opacity:1;" d="M 145.960938 239.796875 L 145.960938 244.976562 L 150.117188 244.976562 L 150.117188 247.011719 L 145.960938 247.011719 L 145.960938 254.367188 L 144.503906 254.367188 L 144.503906 237.753906 L 151.042969 237.753906 L 151.042969 239.796875 Z M 145.960938 239.796875 "/>
<path style=" stroke:none;fill-rule:nonzero;fill:rgb(14.901961%,18.823529%,21.568627%);fill-opacity:1;" d="M 159.234375 249.097656 L 161.351562 254.371094 L 159.738281 254.371094 L 157.808594 249.539062 L 155.511719 249.539062 L 155.511719 254.371094 L 154.058594 254.371094 L 154.058594 237.757812 L 157.871094 237.757812 C 159.527344 237.78125 160.949219 239.753906 161.277344 242.496094 C 161.609375 245.234375 160.753906 247.988281 159.234375 249.097656 M 155.511719 247.496094 L 157.859375 247.496094 C 159.019531 247.269531 159.894531 245.613281 159.894531 243.644531 C 159.894531 241.671875 159.019531 240.015625 157.859375 239.792969 L 155.511719 239.792969 Z M 155.511719 247.496094 "/>
<path style=" stroke:none;fill-rule:nonzero;fill:rgb(14.901961%,18.823529%,21.568627%);fill-opacity:1;" d="M 164.628906 237.757812 L 166.082031 237.757812 L 166.082031 254.367188 L 164.628906 254.367188 Z M 164.628906 237.757812 "/>
<path style=" stroke:none;fill-rule:nonzero;fill:rgb(14.901961%,18.823529%,21.568627%);fill-opacity:1;" d="M 178.128906 252.0625 C 177.203125 253.800781 175.882812 254.796875 174.496094 254.808594 C 171.699219 254.664062 169.476562 250.796875 169.476562 246.074219 C 169.476562 241.355469 171.699219 237.488281 174.496094 237.34375 C 175.886719 237.355469 177.214844 238.355469 178.144531 240.105469 L 177.183594 241.726562 C 177.125 241.574219 177.054688 241.433594 176.976562 241.304688 C 176.351562 240.09375 175.449219 239.394531 174.496094 239.378906 C 173.542969 239.386719 172.640625 240.089844 172.019531 241.304688 C 170.597656 244.03125 170.597656 248.117188 172.019531 250.84375 C 172.644531 252.058594 173.542969 252.757812 174.496094 252.769531 C 175.445312 252.75 176.347656 252.050781 176.976562 250.84375 C 177.039062 250.710938 177.105469 250.578125 177.171875 250.449219 Z M 178.128906 252.0625 "/>
<path style=" stroke:none;fill-rule:nonzero;fill:rgb(14.901961%,18.823529%,21.568627%);fill-opacity:1;" d="M 189.214844 254.371094 L 187.636719 254.371094 L 186.652344 250.03125 L 182.785156 250.03125 L 181.8125 254.371094 L 180.230469 254.371094 L 184.269531 237.757812 L 185.160156 237.757812 Z M 186.199219 247.988281 L 184.730469 241.4375 L 183.25 247.988281 Z M 186.199219 247.988281 "/>
<path style=" stroke:none;fill-rule:nonzero;fill:rgb(14.901961%,18.823529%,21.568627%);fill-opacity:1;" d="M 127.96875 136.265625 C 105.6875 136.269531 87.625 105.789062 87.625 68.191406 C 87.621094 30.589844 105.683594 0.109375 127.964844 0.105469 C 150.246094 0.105469 168.308594 30.582031 168.308594 68.179688 C 168.289062 105.765625 150.238281 136.222656 127.96875 136.265625 M 127.96875 1.996094 C 106.304688 1.992188 88.742188 31.625 88.742188 68.183594 C 88.738281 104.738281 106.300781 134.375 127.964844 134.375 C 149.628906 134.375 167.1875 104.738281 167.1875 68.179688 C 167.160156 31.648438 149.617188 2.042969 127.96875 1.996094 "/>
<path style=" stroke:none;fill-rule:nonzero;fill:rgb(14.901961%,18.823529%,21.568627%);fill-opacity:1;" d="M 128.054688 136.324219 C 127.925781 136.324219 127.804688 136.25 127.707031 136.121094 L 115.488281 119.609375 L 99.832031 116.589844 C 99.574219 116.539062 99.371094 116.195312 99.339844 115.761719 L 97.441406 89.304688 L 87.804688 68.691406 C 87.640625 68.347656 87.640625 67.863281 87.804688 67.519531 L 97.441406 46.96875 L 99.386719 20.476562 C 99.414062 20.042969 99.621094 19.703125 99.875 19.65625 L 115.378906 16.675781 L 127.769531 0.203125 C 127.972656 -0.0703125 128.261719 -0.0703125 128.464844 0.203125 L 140.585938 16.601562 L 156.339844 19.71875 C 156.597656 19.773438 156.800781 20.125 156.828125 20.566406 L 158.488281 47.070312 L 168.351562 67.617188 C 168.523438 67.964844 168.523438 68.464844 168.351562 68.8125 L 158.492188 89.207031 L 156.785156 115.835938 C 156.757812 116.277344 156.550781 116.621094 156.289062 116.667969 L 140.707031 119.601562 L 128.40625 136.117188 C 128.304688 136.246094 128.179688 136.316406 128.054688 136.316406 M 100.398438 114.789062 L 115.773438 117.75 C 115.878906 117.769531 115.976562 117.839844 116.058594 117.953125 L 128.050781 134.15625 L 140.132812 117.945312 C 140.214844 117.835938 140.316406 117.769531 140.421875 117.746094 L 155.710938 114.863281 L 157.390625 88.730469 C 157.402344 88.550781 157.445312 88.378906 157.511719 88.238281 L 167.191406 68.214844 L 157.507812 48.042969 C 157.441406 47.898438 157.402344 47.726562 157.390625 47.546875 L 155.757812 21.523438 L 140.292969 18.457031 C 140.1875 18.4375 140.089844 18.363281 140.007812 18.25 L 128.113281 2.15625 L 115.945312 18.335938 C 115.863281 18.441406 115.765625 18.511719 115.664062 18.535156 L 100.441406 21.453125 L 98.53125 47.464844 C 98.519531 47.640625 98.480469 47.804688 98.417969 47.945312 L 88.957031 68.105469 L 98.417969 88.339844 C 98.480469 88.480469 98.519531 88.644531 98.53125 88.820312 Z M 100.398438 114.789062 "/>
<path style=" stroke:none;fill-rule:nonzero;fill:rgb(14.901961%,18.823529%,21.568627%);fill-opacity:1;" d="M 115.710938 119.648438 C 115.640625 119.644531 115.566406 119.621094 115.5 119.574219 C 115.328125 119.453125 115.203125 119.203125 115.160156 118.898438 L 112.144531 94.996094 L 97.867188 89.851562 C 97.683594 89.792969 97.53125 89.578125 97.464844 89.289062 C 97.394531 88.996094 97.414062 88.664062 97.519531 88.402344 L 105.542969 68.261719 L 97.515625 47.878906 C 97.414062 47.617188 97.394531 47.285156 97.464844 46.992188 C 97.535156 46.703125 97.6875 46.488281 97.871094 46.425781 L 112.082031 41.484375 L 115.054688 17.398438 C 115.09375 17.089844 115.222656 16.835938 115.394531 16.71875 C 115.566406 16.597656 115.761719 16.628906 115.917969 16.800781 L 127.925781 30.34375 L 140.003906 16.800781 C 140.160156 16.628906 140.355469 16.597656 140.527344 16.71875 C 140.703125 16.835938 140.828125 17.089844 140.867188 17.398438 L 143.789062 41.398438 L 158.070312 46.535156 C 158.25 46.597656 158.402344 46.8125 158.472656 47.101562 C 158.546875 47.394531 158.523438 47.726562 158.421875 47.988281 L 150.394531 68.128906 L 158.421875 88.316406 C 158.523438 88.578125 158.542969 88.90625 158.476562 89.199219 C 158.40625 89.492188 158.253906 89.703125 158.070312 89.765625 L 143.859375 94.898438 L 141.039062 118.898438 C 141.007812 119.210938 140.882812 119.472656 140.707031 119.59375 C 140.535156 119.714844 140.339844 119.683594 140.183594 119.507812 L 128.015625 106.039062 L 116.023438 119.507812 C 115.929688 119.609375 115.820312 119.667969 115.707031 119.667969 M 98.90625 88.3125 L 112.730469 93.289062 C 112.949219 93.367188 113.117188 93.652344 113.164062 94.015625 L 116.085938 117.15625 L 127.699219 104.113281 C 127.886719 103.902344 128.128906 103.902344 128.316406 104.113281 L 140.09375 117.148438 L 142.824219 93.921875 C 142.867188 93.546875 143.035156 93.253906 143.253906 93.175781 L 157.019531 88.207031 L 149.246094 68.648438 C 149.117188 68.328125 149.117188 67.902344 149.246094 67.582031 L 157.019531 48.074219 L 143.191406 43.105469 C 142.976562 43.027344 142.804688 42.734375 142.761719 42.367188 L 139.929688 19.15625 L 128.234375 32.265625 C 128.046875 32.476562 127.800781 32.476562 127.613281 32.265625 L 115.988281 19.15625 L 113.105469 42.476562 C 113.058594 42.847656 112.890625 43.136719 112.671875 43.210938 L 98.914062 47.996094 L 106.6875 67.726562 C 106.816406 68.046875 106.816406 68.460938 106.6875 68.777344 Z M 98.90625 88.3125 "/>
<path style=" stroke:none;fill-rule:nonzero;fill:rgb(14.901961%,18.823529%,21.568627%);fill-opacity:1;" d="M 128.011719 105.835938 C 127.9375 105.835938 127.863281 105.8125 127.796875 105.761719 L 112.40625 95.070312 C 112.265625 94.976562 112.15625 94.789062 112.097656 94.558594 L 105.699219 68.625 C 105.640625 68.394531 105.640625 68.132812 105.699219 67.898438 L 112.039062 41.921875 C 112.09375 41.6875 112.203125 41.503906 112.34375 41.410156 L 127.707031 30.605469 C 127.84375 30.511719 128 30.511719 128.136719 30.605469 L 143.53125 41.308594 C 143.667969 41.402344 143.777344 41.585938 143.835938 41.816406 L 150.242188 67.746094 C 150.296875 67.980469 150.296875 68.238281 150.242188 68.472656 L 143.898438 94.453125 C 143.839844 94.683594 143.730469 94.871094 143.59375 94.96875 L 128.234375 105.761719 C 128.164062 105.8125 128.089844 105.839844 128.015625 105.839844 M 113.050781 93.472656 L 128.015625 103.871094 L 142.949219 93.378906 L 149.113281 68.121094 L 142.886719 42.914062 L 127.925781 32.515625 L 112.984375 43.011719 L 106.824219 68.269531 Z M 113.050781 93.472656 "/>
<path style=" stroke:none;fill-rule:nonzero;fill:rgb(14.901961%,18.823529%,21.568627%);fill-opacity:1;" d="M 128.085938 131.882812 C 127.796875 131.882812 127.554688 131.511719 127.527344 131.027344 L 124.78125 81.648438 L 102.144531 113.289062 C 101.921875 113.585938 101.597656 113.554688 101.398438 113.214844 C 101.195312 112.875 101.175781 112.332031 101.355469 111.953125 L 120.105469 73.75 L 90.84375 69.113281 C 90.554688 69.070312 90.332031 68.660156 90.332031 68.171875 C 90.332031 67.683594 90.554688 67.273438 90.84375 67.230469 L 120.105469 62.59375 L 101.355469 24.414062 C 101.167969 24.039062 101.183594 23.488281 101.390625 23.140625 C 101.59375 22.792969 101.921875 22.769531 102.144531 23.082031 L 124.78125 54.726562 L 127.527344 5.339844 C 127.558594 4.859375 127.800781 4.492188 128.085938 4.492188 C 128.375 4.492188 128.617188 4.859375 128.644531 5.339844 L 131.390625 54.726562 L 154.023438 23.082031 C 154.25 22.785156 154.570312 22.816406 154.769531 23.15625 C 154.972656 23.496094 154.992188 24.039062 154.816406 24.414062 L 136.066406 62.609375 L 165.328125 67.246094 C 165.617188 67.289062 165.839844 67.699219 165.839844 68.1875 C 165.839844 68.675781 165.617188 69.085938 165.328125 69.128906 L 136.066406 73.75 L 154.816406 111.941406 C 155 112.320312 154.984375 112.871094 154.777344 113.21875 C 154.574219 113.5625 154.25 113.589844 154.023438 113.28125 L 131.390625 81.640625 L 128.644531 131.019531 C 128.617188 131.503906 128.375 131.875 128.085938 131.875 M 125.242188 78.808594 C 125.3125 78.8125 125.386719 78.839844 125.453125 78.886719 C 125.648438 79.015625 125.777344 79.320312 125.796875 79.667969 L 128.082031 120.78125 L 130.367188 79.667969 C 130.390625 79.320312 130.523438 79.019531 130.714844 78.886719 C 130.90625 78.75 131.125 78.804688 131.285156 79.023438 L 150.136719 105.375 L 134.527344 73.585938 C 134.394531 73.316406 134.363281 72.945312 134.441406 72.621094 C 134.519531 72.296875 134.699219 72.074219 134.90625 72.039062 L 159.273438 68.179688 L 134.90625 64.324219 C 134.699219 64.289062 134.519531 64.066406 134.441406 63.742188 C 134.363281 63.417969 134.394531 63.046875 134.527344 62.777344 L 150.140625 30.964844 L 131.292969 57.316406 C 131.132812 57.539062 130.910156 57.59375 130.71875 57.457031 C 130.527344 57.324219 130.394531 57.019531 130.375 56.667969 L 128.089844 15.558594 L 125.804688 56.667969 C 125.789062 57.023438 125.65625 57.332031 125.460938 57.46875 C 125.269531 57.601562 125.046875 57.542969 124.886719 57.324219 L 106.039062 30.980469 L 121.652344 62.785156 C 121.785156 63.054688 121.816406 63.429688 121.738281 63.753906 C 121.65625 64.082031 121.472656 64.304688 121.261719 64.335938 L 96.894531 68.191406 L 121.261719 72.050781 C 121.46875 72.082031 121.652344 72.304688 121.730469 72.628906 C 121.808594 72.953125 121.777344 73.328125 121.644531 73.597656 L 106.03125 105.40625 L 124.878906 79.054688 C 124.980469 78.917969 125.109375 78.839844 125.238281 78.835938 "/>
</g>
</defs>
<g id="surface1">
<use xlink:href="#surface5" mask="url(#mask0)"/>
</g>
</svg>
